<svg width="16" height="16" viewBox="0 0 16 16" fill="none" xmlns="http://www.w3.org/2000/svg">
<g clip-path="url(#clip0_102_1906)">
<path d="M7.99935 15.3334C12.0427 15.3334 15.3327 12.0438 15.3327 8.00008C15.3327 7.30214 15.2353 6.61434 15.0423 5.95563C14.9473 5.63173 14.6091 5.44568 14.2843 5.54072C13.9601 5.63546 13.7746 5.97488 13.8694 6.29879C14.0291 6.84604 14.1105 7.41866 14.1105 8.00008C14.1105 11.3697 11.369 14.1112 7.99935 14.1112C4.62973 14.1112 1.88824 11.3697 1.88824 8.00008C1.88824 4.63047 4.62973 1.88897 7.99935 1.88897C9.22396 1.88897 10.4022 2.24704 11.4066 2.92425C11.6862 3.11298 12.0663 3.03883 12.2547 2.75924C12.4433 2.47934 12.3698 2.09949 12.0899 1.9109C10.8829 1.09703 9.46849 0.666748 7.99935 0.666748C3.95596 0.666748 0.666016 3.95639 0.666016 8.00008C0.666016 12.0438 3.95596 15.3334 7.99935 15.3334Z" fill="#0069B4"/>
<path d="M14.8612 1.52861L7.99923 8.39026L5.80391 6.19527C5.5435 5.93502 5.12162 5.93502 4.86121 6.19527C4.60095 6.45569 4.60095 6.87756 4.86121 7.13798L7.52787 9.80465C7.65824 9.93502 7.82849 9.99996 7.99923 9.99996C8.16996 9.99996 8.34021 9.93502 8.47058 9.80465L15.8039 2.47131C16.0642 2.2109 16.0642 1.78902 15.8039 1.52861C15.5435 1.26835 15.1216 1.26835 14.8612 1.52861Z" fill="#0069B4"/>
</g>
<defs>
<clipPath id="clip0_102_1906">
<rect width="16" height="16" fill="white"/>
</clipPath>
</defs>
</svg>
