<svg width="23" height="23" viewBox="0 0 23 23" fill="none" xmlns="http://www.w3.org/2000/svg">
<path d="M16.831 0.962761L14.1694 0.958374C11.1793 0.958374 9.24691 2.99492 9.24691 6.14701V8.53932H6.57085C6.3396 8.53932 6.15234 8.7319 6.15234 8.96944V12.4356C6.15234 12.6732 6.33982 12.8655 6.57085 12.8655H9.24691V21.6118C9.24691 21.8493 9.43417 22.0417 9.66541 22.0417H13.1569C13.3882 22.0417 13.5754 21.8491 13.5754 21.6118V12.8655H16.7044C16.9356 12.8655 17.1229 12.6732 17.1229 12.4356L17.1241 8.96944C17.1241 8.85538 17.0799 8.74615 17.0016 8.66544C16.9232 8.58472 16.8165 8.53932 16.7054 8.53932H13.5754V6.51133C13.5754 5.5366 13.8015 5.04177 15.0376 5.04177L16.8305 5.04111C17.0616 5.04111 17.2488 4.84854 17.2488 4.61121V1.39266C17.2488 1.15556 17.0618 0.963199 16.831 0.962761Z" fill="#3C3C3C"/>
</svg>
