<svg width="24" height="23" viewBox="0 0 24 23" fill="none" xmlns="http://www.w3.org/2000/svg">
<path d="M21.54 7.55168C21.4951 6.53328 21.3304 5.83314 21.0945 5.22646C20.8511 4.58248 20.4767 4.00593 19.9862 3.52664C19.5069 3.03989 18.9265 2.66167 18.29 2.4221C17.6798 2.18618 16.9833 2.02149 15.9649 1.97659C14.9389 1.92789 14.6132 1.91663 12.011 1.91663C9.40874 1.91663 9.08303 1.92789 8.06083 1.97279C7.04243 2.01769 6.34229 2.18252 5.73576 2.41829C5.09163 2.66167 4.51508 3.03609 4.03579 3.52664C3.54905 4.00593 3.17097 4.58628 2.93125 5.2228C2.69534 5.83314 2.53065 6.52948 2.48575 7.54787C2.43704 8.57388 2.42578 8.8996 2.42578 11.5018C2.42578 14.1041 2.43704 14.4298 2.48194 15.452C2.52685 16.4704 2.69168 17.1705 2.92759 17.7772C3.17097 18.4212 3.54905 18.9977 4.03579 19.477C4.51508 19.9638 5.09544 20.342 5.73195 20.5816C6.34229 20.8175 7.03863 20.9822 8.05717 21.0271C9.07922 21.0721 9.40509 21.0832 12.0073 21.0832C14.6095 21.0832 14.9353 21.0721 15.9575 21.0271C16.9759 20.9822 17.676 20.8175 18.2825 20.5816C19.5706 20.0836 20.589 19.0652 21.087 17.7772C21.3228 17.1669 21.4876 16.4704 21.5325 15.452C21.5774 14.4298 21.5887 14.1041 21.5887 11.5018C21.5887 8.8996 21.5849 8.57388 21.54 7.55168ZM19.814 15.3771C19.7728 16.3132 19.6155 16.8186 19.4845 17.1556C19.1624 17.9906 18.4997 18.6533 17.6647 18.9754C17.3278 19.1064 16.8186 19.2636 15.8862 19.3047C14.8753 19.3498 14.5721 19.3609 12.0148 19.3609C9.45745 19.3609 9.15045 19.3498 8.14317 19.3047C7.20712 19.2636 6.70165 19.1064 6.36467 18.9754C5.94915 18.8218 5.57092 18.5784 5.26393 18.2601C4.94567 17.9493 4.70229 17.5749 4.54872 17.1594C4.41767 16.8224 4.26045 16.3132 4.21935 15.3809C4.1743 14.37 4.16319 14.0666 4.16319 11.5093C4.16319 8.95196 4.1743 8.64496 4.21935 7.63782C4.26045 6.70177 4.41767 6.1963 4.54872 5.85932C4.70229 5.44365 4.94567 5.06557 5.26773 4.75843C5.57838 4.44017 5.9528 4.1968 6.36847 4.04337C6.70545 3.91232 7.21472 3.7551 8.14697 3.71385C9.15791 3.66895 9.46125 3.65769 12.0184 3.65769C14.5796 3.65769 14.8828 3.66895 15.89 3.71385C16.8261 3.7551 17.3316 3.91232 17.6685 4.04337C18.0841 4.1968 18.4623 4.44017 18.7693 4.75843C19.0875 5.06923 19.3309 5.44365 19.4845 5.85932C19.6155 6.1963 19.7728 6.70543 19.814 7.63782C19.8589 8.64876 19.8702 8.95196 19.8702 11.5093C19.8702 14.0666 19.8589 14.3662 19.814 15.3771Z" fill="#3C3C3C"/>
<path d="M12.011 6.57818C9.29275 6.57818 7.08732 8.78347 7.08732 11.5018C7.08732 14.2202 9.29275 16.4255 12.011 16.4255C14.7293 16.4255 16.9346 14.2202 16.9346 11.5018C16.9346 8.78347 14.7293 6.57818 12.011 6.57818ZM12.011 14.6957C10.2475 14.6957 8.81712 13.2654 8.81712 11.5018C8.81712 9.73825 10.2475 8.30798 12.011 8.30798C13.7746 8.30798 15.2048 9.73825 15.2048 11.5018C15.2048 13.2654 13.7746 14.6957 12.011 14.6957Z" fill="#3C3C3C"/>
<path d="M18.2789 6.38351C18.2789 7.01828 17.7642 7.53296 17.1293 7.53296C16.4946 7.53296 15.9799 7.01828 15.9799 6.38351C15.9799 5.7486 16.4946 5.23406 17.1293 5.23406C17.7642 5.23406 18.2789 5.7486 18.2789 6.38351Z" fill="#3C3C3C"/>
</svg>
