<svg width="16" height="16" viewBox="0 0 16 16" fill="none" xmlns="http://www.w3.org/2000/svg">
<path fill-rule="evenodd" clip-rule="evenodd" d="M5.66732 1.94796C5.11503 1.94796 4.66732 2.39567 4.66732 2.94796V13.0521C4.66732 13.6044 5.11503 14.0521 5.66732 14.0521H10.334C10.8863 14.0521 11.334 13.6044 11.334 13.0521V2.94796C11.334 2.39567 10.8863 1.94796 10.334 1.94796H10.2784L10.116 2.33759C10.0125 2.586 9.76977 2.74781 9.50065 2.74781H6.50065C6.23153 2.74781 5.98881 2.586 5.88528 2.33759L5.72291 1.94796H5.66732ZM3.33398 2.94796C3.33398 1.65929 4.37865 0.614624 5.66732 0.614624H10.334C11.6226 0.614624 12.6673 1.65929 12.6673 2.94796V13.0521C12.6673 14.3408 11.6226 15.3855 10.334 15.3855H5.66732C4.37865 15.3855 3.33398 14.3408 3.33398 13.0521V2.94796Z" fill="#1A1A1A"/>
</svg>
