<svg width="90" height="63" viewBox="0 0 90 63" fill="none" xmlns="http://www.w3.org/2000/svg">
<path d="M70.5485 43.5928C70.2742 44.1978 69.9774 44.7936 69.6491 45.3711C65.2013 44.648 60.5062 44.1113 55.6221 43.7838C52.0693 43.5383 48.4265 43.4109 44.6893 43.4064H43.3402C36.9009 43.4623 30.4706 43.9043 24.083 44.7299C23.984 44.7299 23.8851 44.7571 23.7862 44.7708C22.3155 44.9663 20.8675 45.1801 19.4463 45.4211C19.127 44.8345 18.8257 44.2341 18.5469 43.6247C20.3458 43.3063 22.1851 43.0243 24.065 42.7742L24.3573 42.7332C30.6433 41.9185 36.9715 41.4827 43.3087 41.428H44.6309C48.2961 41.428 51.8939 41.5599 55.3883 41.8009C60.469 42.1325 65.5292 42.7306 70.5485 43.5928Z" fill="#AABCCF"/>
<path d="M72.3207 45.8353L72.1274 46.2128C71.7767 46.8768 71.4076 47.5272 71.0123 48.1594L70.8233 48.4641C70.7289 48.6142 70.6299 48.7642 70.531 48.9189C67.5214 53.4985 63.3801 57.2028 58.5179 59.6641C53.6556 62.1254 48.2416 63.2584 42.8128 62.9503C37.3839 62.6423 32.1291 60.9042 27.5696 57.9083C23.0102 54.9124 19.3045 50.763 16.8203 45.8717L17.0182 45.8353L17.2611 45.7898L18.2055 45.6215L18.7362 45.5306C18.979 45.4851 19.2263 45.4441 19.4737 45.4078C21.8155 49.7346 25.2129 53.3836 29.3426 56.0079C33.4724 58.6323 38.1973 60.1446 43.0682 60.4013C47.9389 60.6579 52.7937 59.6502 57.1708 57.474C61.5479 55.2979 65.3018 52.0256 68.0755 47.9683L68.3138 47.6227C68.7995 46.895 69.2492 46.137 69.663 45.3486L71.0123 45.5806L72.3207 45.8353Z" fill="#0069B4"/>
<path d="M89.2613 27.5111L87.8849 37.3394L86.5091 47.1768C59.1074 39.4906 30.154 39.4906 2.75232 47.1768L1.37615 37.3394L0 27.5474C29.1251 18.7999 60.1362 18.7999 89.2613 27.5474V27.5111Z" fill="#0069B4"/>
<path d="M9.10202 36.6433L10.9324 39.3039C11.0404 39.4752 11.0787 39.6821 11.0393 39.8813C11 40.0805 10.8859 40.2566 10.721 40.3727C10.6333 40.4417 10.5322 40.4913 10.4242 40.5182C10.2882 40.5544 10.1445 40.5482 10.0121 40.5003C9.87965 40.4524 9.76468 40.365 9.68215 40.2499L7.61794 37.2345L7.08726 37.3618L7.53697 40.4455C7.5551 40.6485 7.50134 40.8515 7.38515 41.0181C7.26897 41.1847 7.0981 41.3041 6.90288 41.3551C6.80986 41.3813 6.71238 41.3871 6.61695 41.3722C6.52151 41.3573 6.43032 41.322 6.34945 41.2686C6.26858 41.2152 6.1999 41.145 6.14799 41.0627C6.09608 40.9803 6.06212 40.8877 6.0484 40.7911L4.69923 31.5404C4.67988 31.3416 4.73262 31.1426 4.84762 30.9802C4.96263 30.8179 5.13206 30.7034 5.32434 30.658L7.0333 30.2487C7.33634 30.1656 7.65329 30.1476 7.96365 30.1958C8.27401 30.2442 8.57098 30.3576 8.83537 30.529C9.09968 30.7004 9.32567 30.9259 9.49859 31.1909C9.67159 31.456 9.7877 31.7547 9.83956 32.0679L10.1544 34.0827C10.2212 34.5657 10.1588 35.0579 9.9738 35.5082C9.78869 35.9586 9.48768 36.3505 9.10202 36.6433ZM6.8804 35.9156L7.87878 35.67C8.14423 35.6061 8.37716 35.4455 8.53308 35.2191C8.68908 34.9926 8.75709 34.716 8.72429 34.442L8.41846 32.4227C8.39855 32.2953 8.35215 32.1735 8.28223 32.0657C8.21231 31.9578 8.1205 31.8662 8.01289 31.797C7.90528 31.7277 7.78435 31.6824 7.65811 31.664C7.53187 31.6457 7.40322 31.6547 7.28066 31.6904L6.29126 31.9269L6.8804 35.9156Z" fill="white"/>
<path d="M17.1161 38.331C17.1429 38.5367 17.0914 38.7452 16.972 38.9141C16.8527 39.0829 16.6743 39.1997 16.473 39.2406L13.5093 39.8273C13.4168 39.8447 13.3218 39.8429 13.2301 39.8218C13.1383 39.8006 13.0518 39.7607 12.976 39.7044C12.9001 39.6481 12.8365 39.5767 12.7889 39.4946C12.7415 39.4125 12.7112 39.3214 12.6998 39.2269L11.616 29.9626C11.5999 29.7663 11.6556 29.5708 11.7725 29.4132C11.8893 29.2557 12.0593 29.1469 12.2501 29.1075L15.1373 28.5435C15.2278 28.5217 15.3217 28.5193 15.4131 28.5364C15.5045 28.5536 15.5913 28.5898 15.668 28.643C15.7447 28.6961 15.8095 28.7649 15.8583 28.8449C15.9071 28.9249 15.9388 29.0143 15.9513 29.1075C15.9703 29.3039 15.9156 29.5002 15.7982 29.6577C15.6808 29.8153 15.5091 29.9225 15.3172 29.958L13.1451 30.3855L13.5228 33.5191L14.6156 33.3053C14.7047 33.2892 14.7962 33.2914 14.8845 33.3121C14.9727 33.3326 15.0558 33.371 15.129 33.425C15.2021 33.479 15.2637 33.5474 15.3099 33.6261C15.3562 33.7048 15.3862 33.7922 15.3981 33.883C15.4187 34.0828 15.3646 34.2833 15.2464 34.4449C15.1282 34.6065 14.9546 34.7175 14.7596 34.7562L13.6622 34.9745L14.0535 38.1854L16.2661 37.7306C16.3615 37.7058 16.461 37.7022 16.5579 37.72C16.6547 37.7378 16.7467 37.7765 16.8274 37.8335C16.9081 37.8905 16.9756 37.9644 17.0255 38.0503C17.0753 38.1361 17.1062 38.2319 17.1161 38.331Z" fill="white"/>
<path d="M22.7744 28.0024L23.7188 37.2394C23.7385 37.4416 23.6809 37.6437 23.558 37.8043C23.4351 37.965 23.2561 38.072 23.0577 38.1036C22.963 38.1204 22.8659 38.1171 22.7725 38.0941C22.6791 38.0711 22.5914 38.0287 22.515 37.9697C22.4386 37.9108 22.375 37.8365 22.3283 37.7516C22.2816 37.6665 22.2528 37.5728 22.2437 37.476L21.8524 33.5237L19.8602 33.833L20.2289 37.7943C20.2418 37.9972 20.18 38.1977 20.0555 38.3572C19.931 38.5167 19.7524 38.624 19.5544 38.6584C19.4598 38.6752 19.3628 38.6718 19.2696 38.6484C19.1765 38.625 19.0892 38.5822 19.0134 38.5227C18.9375 38.4631 18.8749 38.3882 18.8294 38.3027C18.784 38.2172 18.7567 38.1231 18.7493 38.0263L17.9173 28.7482C17.9061 28.553 17.9671 28.3606 18.0885 28.2085C18.2098 28.0562 18.3829 27.9552 18.574 27.925C18.6651 27.9082 18.7587 27.9107 18.8488 27.9324C18.939 27.954 19.0237 27.9943 19.0976 28.0507C19.1716 28.1071 19.2332 28.1784 19.2785 28.2601C19.3238 28.3419 19.3519 28.4321 19.361 28.5253L19.7208 32.3776L21.695 32.0956L21.3127 28.2479C21.2994 28.0535 21.3591 27.8611 21.4801 27.7093C21.601 27.5575 21.7741 27.4575 21.9648 27.4293C22.0555 27.4103 22.149 27.4103 22.2396 27.4292C22.3302 27.4481 22.4161 27.4855 22.4919 27.5392C22.5677 27.5928 22.6318 27.6616 22.6804 27.7412C22.729 27.8209 22.761 27.9098 22.7744 28.0024Z" fill="white"/>
<path d="M30.3067 37.2029C30.257 37.2198 30.2057 37.2319 30.1537 37.2392C29.9868 37.2589 29.8184 37.218 29.6784 37.1239C29.5384 37.0298 29.436 36.8886 29.3892 36.7254L28.98 35.3063L27.0192 35.5201L26.8033 37.0164C26.7732 37.2153 26.6698 37.3954 26.5137 37.5203C26.3577 37.6452 26.1606 37.7056 25.9623 37.6895C25.8667 37.6791 25.7742 37.649 25.6905 37.6011C25.6067 37.5532 25.5336 37.4885 25.4755 37.411C25.4174 37.3335 25.3755 37.2448 25.3525 37.1503C25.3295 37.0559 25.3258 36.9577 25.3417 36.8618L26.7448 27.37C26.7715 27.2048 26.8511 27.053 26.9713 26.9379C27.0916 26.8229 27.2458 26.751 27.4104 26.7333C27.5711 26.7119 27.7341 26.7485 27.8706 26.8367C28.0072 26.9248 28.1086 27.0589 28.157 27.2153L30.8104 36.2523C30.8642 36.4459 30.8418 36.653 30.7479 36.8302C30.654 37.0074 30.4958 37.141 30.3067 37.2029ZM28.5617 33.8646L27.6937 30.8674L27.244 34.0101L28.5617 33.8646Z" fill="white"/>
<path d="M37.1251 29.5443C37.1526 30.192 36.9264 30.8245 36.4954 31.3045C36.7316 31.5174 36.9232 31.7761 37.0592 32.065C37.1951 32.354 37.2726 32.6676 37.2869 32.9872L37.3409 34.1924C37.367 34.8614 37.1339 35.5142 36.6912 36.0119C36.2486 36.5097 35.6314 36.8131 34.9709 36.8576L33.2214 36.9713C33.1252 36.9787 33.0285 36.9663 32.9371 36.9347C32.8458 36.9031 32.7618 36.8529 32.6903 36.7874C32.6187 36.7219 32.5611 36.6422 32.521 36.5535C32.4809 36.4646 32.459 36.3685 32.4569 36.2709L32.1466 26.9838C32.1429 26.791 32.2136 26.6043 32.3437 26.4633C32.4738 26.3223 32.6532 26.2383 32.8436 26.2288L34.5436 26.1197C34.8563 26.0956 35.1705 26.135 35.4678 26.2354C35.7652 26.3359 36.0396 26.4956 36.2751 26.7049C36.5106 26.9142 36.7024 27.169 36.839 27.4543C36.9757 27.7397 37.0546 28.0498 37.0711 28.3664L37.1251 29.5443ZM33.7297 30.7314L34.7235 30.6677C34.9863 30.6524 35.2329 30.5341 35.411 30.338C35.589 30.1419 35.6844 29.8832 35.6769 29.6171L35.6365 28.4574C35.629 28.3292 35.5965 28.2039 35.5408 28.0886C35.4851 27.9733 35.4073 27.8703 35.3119 27.7857C35.2165 27.7011 35.1054 27.6365 34.9851 27.5956C34.8648 27.5548 34.7377 27.5385 34.6111 27.5478L33.6262 27.6114L33.7297 30.7314ZM35.8209 33.0645C35.8158 32.9333 35.7846 32.8043 35.7292 32.6855C35.6737 32.5667 35.5952 32.4603 35.4982 32.3729C35.4013 32.2854 35.2878 32.2187 35.1648 32.1765C35.0417 32.1344 34.9115 32.1177 34.782 32.1277L33.7881 32.1913L33.905 35.4113L34.9124 35.3477C35.1797 35.3301 35.4295 35.2075 35.6085 35.0061C35.7875 34.8047 35.8814 34.5403 35.8703 34.2698L35.8209 33.0645Z" fill="white"/>
<path d="M40.3675 26.5647L40.5653 35.8518C40.5689 36.0505 40.495 36.2427 40.3594 36.3865C40.2239 36.5305 40.0377 36.6145 39.8412 36.6205C39.7448 36.6235 39.6488 36.6071 39.5586 36.5723C39.4685 36.5375 39.3861 36.4849 39.3163 36.4176C39.2464 36.3503 39.1905 36.2697 39.1517 36.1804C39.1128 36.0911 39.0919 35.9948 39.0902 35.8973L38.9238 26.6102C38.9238 26.4191 38.9976 26.2355 39.1295 26.0987C39.2614 25.9619 39.441 25.8827 39.6299 25.8779C39.723 25.8737 39.816 25.8881 39.9036 25.9204C39.9911 25.9526 40.0715 26.0021 40.1401 26.0659C40.2087 26.1298 40.2641 26.2068 40.3031 26.2924C40.3421 26.3779 40.364 26.4705 40.3675 26.5647Z" fill="white"/>
<path d="M46.7032 35.7888C46.7038 35.8867 46.6853 35.9839 46.6488 36.0745C46.6123 36.1653 46.5584 36.2479 46.4904 36.3175C46.4223 36.3872 46.3414 36.4426 46.2521 36.4807C46.1628 36.5187 46.0671 36.5386 45.9701 36.5392H43.011C42.9139 36.5398 42.8178 36.5209 42.728 36.4836C42.6383 36.4464 42.5568 36.3915 42.4881 36.3221C42.4195 36.2527 42.3652 36.1702 42.3284 36.0795C42.2915 35.9887 42.2728 35.8915 42.2735 35.7934V26.5107C42.2878 26.3271 42.3701 26.1557 42.5038 26.0306C42.6377 25.9056 42.8131 25.8362 42.9953 25.8362C43.1774 25.8362 43.3529 25.9056 43.4866 26.0306C43.6205 26.1557 43.7027 26.3271 43.7171 26.5107V35.052H45.9791C46.1708 35.0555 46.3537 35.1345 46.4889 35.272C46.624 35.4095 46.7009 35.5949 46.7032 35.7888Z" fill="white"/>
<path d="M49.9956 26.6016L49.8561 35.8842C49.8556 35.9823 49.8355 36.0793 49.7972 36.1694C49.7589 36.2596 49.703 36.341 49.633 36.4089C49.5629 36.4767 49.4801 36.5297 49.3894 36.5646C49.2987 36.5994 49.202 36.6155 49.1051 36.6118C48.9086 36.6059 48.7224 36.5219 48.5869 36.378C48.4513 36.2341 48.3774 36.042 48.381 35.8433L48.5564 26.5561C48.5587 26.4623 48.5795 26.3699 48.6175 26.2844C48.6556 26.1989 48.7101 26.1219 48.778 26.0579C48.8458 25.994 48.9256 25.9443 49.0127 25.912C49.0997 25.8796 49.1923 25.8651 49.2849 25.8694C49.475 25.8718 49.6564 25.9501 49.7895 26.0873C49.9227 26.2245 49.9968 26.4094 49.9956 26.6016Z" fill="white"/>
<path d="M57.1826 26.9882C57.1792 27.0821 57.157 27.1742 57.1176 27.2592C57.0781 27.3442 57.022 27.4202 56.9526 27.4827C56.8833 27.5451 56.8022 27.5928 56.7141 27.6227C56.6262 27.6526 56.5331 27.6642 56.4405 27.6567L55.2577 27.5794L54.9744 36.148C54.971 36.2456 54.9482 36.3415 54.9074 36.43C54.8666 36.5185 54.8086 36.5978 54.7368 36.6632C54.665 36.7285 54.581 36.7786 54.4897 36.8104C54.3984 36.8422 54.3017 36.8551 54.2053 36.8484C54.009 36.8344 53.8254 36.7443 53.6931 36.5969C53.5607 36.4495 53.4897 36.2561 53.4948 36.057L53.8321 27.4885L52.6493 27.4157C52.46 27.4051 52.2823 27.3204 52.1538 27.1794C52.0253 27.0384 51.9562 26.8524 51.9612 26.6608C51.9657 26.5665 51.989 26.4741 52.0294 26.3891C52.0699 26.3041 52.1269 26.2281 52.1969 26.1658C52.2669 26.1034 52.3486 26.0559 52.4372 26.0262C52.5257 25.9963 52.6192 25.9848 52.7123 25.9921L56.5035 26.2287C56.6911 26.2437 56.866 26.3308 56.9922 26.472C57.1185 26.6132 57.1866 26.7978 57.1826 26.9882Z" fill="white"/>
<path d="M63.9277 29.3666L63.5859 35.2018C63.5679 35.5271 63.4842 35.8453 63.3398 36.1366C63.1954 36.428 62.9935 36.6863 62.7465 36.8955C62.4995 37.1049 62.2126 37.2607 61.9038 37.3535C61.5948 37.4462 61.2704 37.4739 60.9505 37.4349C60.2879 37.3581 59.6793 37.0281 59.2495 36.5123C58.8198 35.9965 58.6013 35.334 58.6389 34.6605L59.0526 28.8436C59.0764 28.5283 59.1632 28.2211 59.308 27.9408C59.4527 27.6605 59.6523 27.4129 59.8945 27.2129C60.1368 27.013 60.4167 26.865 60.7173 26.7778C61.0179 26.6907 61.3328 26.6663 61.6431 26.706C62.2866 26.7736 62.8806 27.0861 63.3048 27.5801C63.729 28.0741 63.9517 28.7128 63.9277 29.3666ZM62.4796 29.212C62.4912 28.946 62.4017 28.6855 62.2294 28.4843C62.0571 28.283 61.8151 28.156 61.5532 28.1295C61.4271 28.1131 61.299 28.1228 61.1767 28.1581C61.0545 28.1935 60.9407 28.2536 60.8422 28.3349C60.7437 28.4162 60.6626 28.5169 60.6039 28.631C60.5452 28.7451 60.5102 28.87 60.5008 28.9982L60.1095 34.8197C60.0951 35.0921 60.1838 35.3598 60.3575 35.5685C60.5313 35.7772 60.7771 35.9111 61.0449 35.9431C61.1751 35.9589 61.307 35.9474 61.4326 35.9096C61.5581 35.8717 61.6747 35.8081 61.775 35.7228C61.8754 35.6376 61.9573 35.5324 62.0158 35.4139C62.0744 35.2953 62.1082 35.1658 62.1153 35.0334L62.4796 29.212Z" fill="white"/>
<path d="M69.5541 37.8624C69.5467 37.9592 69.5195 38.0534 69.474 38.1389C69.4285 38.2244 69.3659 38.2993 69.2901 38.3589C69.2142 38.4184 69.1269 38.4612 69.0338 38.4846C68.9406 38.508 68.8436 38.5114 68.7491 38.4946L65.7854 38.0398C65.5879 38.0073 65.4098 37.9009 65.2865 37.7415C65.1631 37.5823 65.1036 37.3819 65.1198 37.1803L66.0193 27.9341C66.0295 27.8409 66.0586 27.7509 66.1046 27.6695C66.1505 27.5881 66.2125 27.5171 66.2867 27.4608C66.3609 27.4046 66.4456 27.3643 66.5357 27.3425C66.6258 27.3206 66.7195 27.3176 66.8108 27.3337C67.0011 27.3608 67.1742 27.4599 67.2952 27.611C67.4162 27.7621 67.4761 27.9538 67.4629 28.1478L66.6668 36.6663L68.8795 37.0029C69.0781 37.0343 69.2578 37.1402 69.3828 37.2994C69.5078 37.4587 69.5689 37.6597 69.5541 37.8624Z" fill="white"/>
<path d="M77.0111 31.5455L76.3594 37.367C76.3247 37.6899 76.2226 38.0017 76.0611 38.2822C75.8989 38.5626 75.6807 38.8054 75.4193 38.9946C75.1586 39.1839 74.8611 39.3154 74.5465 39.3806C74.232 39.4457 73.9068 39.443 73.5937 39.3727C72.9285 39.2403 72.3362 38.8614 71.9324 38.3104C71.5293 37.7594 71.3437 37.0758 71.4125 36.3937L72.1322 30.5949C72.1726 30.2817 72.2781 29.9805 72.4404 29.7106C72.6033 29.4408 72.8194 29.2081 73.0758 29.0275C73.3323 28.847 73.6234 28.7224 73.9302 28.6618C74.2369 28.6012 74.5522 28.606 74.8575 28.6757C75.5036 28.8004 76.081 29.1626 76.4791 29.6925C76.8765 30.2224 77.0664 30.8826 77.0111 31.5455ZM75.5546 31.2635C75.578 30.9946 75.5015 30.7263 75.34 30.5111C75.1791 30.2958 74.9439 30.1491 74.6818 30.0993C74.5579 30.0687 74.4289 30.0652 74.3028 30.0891C74.1774 30.113 74.0584 30.1636 73.9543 30.2376C73.8494 30.3116 73.7616 30.4073 73.6964 30.5184C73.6312 30.6294 73.5894 30.7531 73.5753 30.8815L72.8739 36.6848C72.8477 36.963 72.9256 37.2409 73.0921 37.464C73.2586 37.687 73.5016 37.8391 73.7736 37.8901C73.9004 37.919 74.0322 37.9205 74.1597 37.8945C74.2872 37.8686 74.4084 37.8157 74.5146 37.7392C74.6202 37.6629 74.7095 37.5648 74.7753 37.4512C74.8412 37.3377 74.883 37.2114 74.8979 37.0805L75.5546 31.2635Z" fill="white"/>
<path d="M83.434 36.0067L83.0246 38.9357C82.9821 39.26 82.8708 39.5713 82.6987 39.8482C82.5265 40.1251 82.2977 40.3613 82.0271 40.5405C81.7565 40.7197 81.4505 40.8377 81.1302 40.8864C80.8107 40.9352 80.4842 40.9136 80.1732 40.8231C79.508 40.6599 78.9249 40.2551 78.5353 39.6858C78.1457 39.1165 77.9763 38.4222 78.0599 37.735L78.9589 31.9589C79.0114 31.6472 79.1268 31.35 79.299 31.086C79.4711 30.8221 79.6957 30.5974 79.9585 30.4263C80.2213 30.255 80.5168 30.1411 80.8256 30.0918C81.1338 30.0425 81.4497 30.0588 81.7515 30.1397C82.4004 30.2904 82.9721 30.6753 83.3597 31.2222C83.7472 31.769 83.9236 32.4402 83.8563 33.1096C83.8428 33.2034 83.8095 33.2932 83.7585 33.373C83.7082 33.4529 83.6409 33.5208 83.5623 33.5724C83.4836 33.624 83.3951 33.6582 83.3023 33.6725C83.2095 33.6868 83.1152 33.6809 83.0246 33.6554C82.8269 33.6106 82.6526 33.4922 82.5365 33.3237C82.421 33.1552 82.3721 32.949 82.3997 32.7458C82.4281 32.4738 82.3565 32.2008 82.1993 31.9785C82.042 31.7563 81.8089 31.6004 81.5447 31.5405C81.4221 31.5055 81.2939 31.4973 81.1678 31.5163C81.0417 31.5353 80.9213 31.5811 80.8143 31.6508C80.7073 31.7204 80.6159 31.8123 80.5465 31.9203C80.4771 32.0284 80.431 32.15 80.4119 32.2773L79.5526 38.067C79.5193 38.3444 79.588 38.6246 79.746 38.8543C79.9033 39.084 80.1385 39.2473 80.4069 39.3131C80.533 39.352 80.6662 39.3625 80.7966 39.3437C80.9269 39.3249 81.0516 39.2774 81.1621 39.2045C81.2719 39.1316 81.3654 39.0352 81.4342 38.9219C81.5036 38.8087 81.5475 38.6814 81.5631 38.5491L81.8776 36.3524L81.2797 36.2114C81.0821 36.1647 80.9092 36.0461 80.793 35.8783C80.6769 35.7105 80.6258 35.5052 80.6499 35.3018C80.6641 35.2078 80.6981 35.1179 80.7491 35.0381C80.8008 34.9583 80.8681 34.8904 80.9468 34.8388C81.0261 34.7872 81.1147 34.7532 81.2082 34.7389C81.301 34.7246 81.3959 34.7305 81.4866 34.756L82.8354 35.0744C83.0309 35.1288 83.1995 35.2538 83.3101 35.4256C83.4199 35.5975 83.4645 35.8043 83.434 36.0067Z" fill="white"/>
<path d="M34.9203 51.707L34.9787 52.553C34.995 52.7809 34.9667 53.0097 34.8955 53.2265C34.8243 53.4433 34.7115 53.6438 34.5637 53.8165C34.4159 53.9892 34.2359 54.1308 34.0339 54.2332C33.8319 54.3356 33.612 54.3967 33.3867 54.4131C33.1614 54.4296 32.9351 54.4009 32.7207 54.3289C32.5064 54.2569 32.3081 54.1429 32.1373 53.9934C31.9665 53.8439 31.8265 53.6618 31.7253 53.4576C31.624 53.2534 31.5636 53.031 31.5473 52.8031C31.5463 52.6712 31.5949 52.5437 31.6835 52.4468C31.772 52.3499 31.8938 52.2908 32.0239 52.2816C32.1541 52.2723 32.2829 52.3135 32.384 52.3969C32.4851 52.4803 32.551 52.5996 32.5682 52.7303C32.5723 52.8246 32.5951 52.9172 32.6352 53.0024C32.6753 53.0877 32.7319 53.1639 32.8016 53.2266C32.8714 53.2893 32.9529 53.3372 33.0414 53.3674C33.1298 53.3976 33.2233 53.4096 33.3164 53.4026C33.4095 53.3955 33.5002 53.3697 33.5832 53.3266C33.6662 53.2835 33.7398 53.2239 33.7997 53.1514C33.8595 53.079 33.9043 52.9951 33.9315 52.9048C33.9586 52.8145 33.9676 52.7196 33.9579 52.6258L33.8994 51.7798C33.8856 51.5935 33.7992 51.4203 33.6593 51.2984C33.5193 51.1764 33.3371 51.1156 33.1529 51.1294H33.0989C32.6508 51.1508 32.2121 50.9946 31.8761 50.6939C31.5402 50.3933 31.3334 49.9719 31.3 49.5194L31.2416 48.678C31.2129 48.4438 31.2316 48.2061 31.2966 47.9794C31.3616 47.7527 31.4714 47.5416 31.6195 47.3592C31.7676 47.1767 31.9508 47.0266 32.158 46.9179C32.3652 46.8093 32.5921 46.7444 32.8249 46.7271C33.0577 46.7098 33.2915 46.7406 33.5121 46.8174C33.7328 46.8943 33.9358 47.0158 34.1085 47.1745C34.2814 47.3331 34.4205 47.5256 34.5176 47.7403C34.6146 47.955 34.6674 48.1874 34.6729 48.4233C34.6822 48.4935 34.6771 48.5649 34.658 48.633C34.6389 48.7011 34.6063 48.7645 34.5621 48.8194C34.5178 48.8742 34.463 48.9194 34.4008 48.952C34.3386 48.9846 34.2706 49.004 34.2008 49.0089C34.1309 49.0139 34.0609 49.0044 33.9948 48.9809C33.9288 48.9574 33.8682 48.9206 33.8167 48.8725C33.7654 48.8244 33.7242 48.7663 33.6959 48.7015C33.6676 48.6368 33.6527 48.5669 33.652 48.4961C33.6452 48.4036 33.6205 48.3133 33.5792 48.2303C33.5379 48.1474 33.4809 48.0736 33.4113 48.0129C33.3418 47.9524 33.2611 47.9062 33.1739 47.8771C33.0868 47.848 32.9948 47.8366 32.9032 47.8435C32.8117 47.8504 32.7224 47.8754 32.6404 47.9172C32.5584 47.9589 32.4854 48.0166 32.4255 48.0869C32.3656 48.1573 32.3199 48.2388 32.2912 48.327C32.2624 48.4151 32.2511 48.5081 32.2579 48.6007L32.3208 49.4467C32.3347 49.633 32.4211 49.8062 32.5611 49.9281C32.7011 50.0501 32.8831 50.1108 33.0674 50.0971H33.1214C33.5695 50.0757 34.0082 50.2319 34.3442 50.5326C34.6801 50.8332 34.8868 51.2546 34.9203 51.707Z" fill="#0069B4"/>
<path d="M39.5081 52.3343C39.5284 52.7951 39.3668 53.2451 39.059 53.5855C38.7511 53.9258 38.3222 54.1285 37.8666 54.1489C37.411 54.1695 36.9659 54.0061 36.6294 53.6948C36.2929 53.3835 36.0925 52.9497 36.0722 52.489L35.8923 48.3547C35.8823 48.1266 35.9168 47.8987 35.9938 47.684C36.0709 47.4694 36.189 47.2721 36.3414 47.1036C36.4939 46.9351 36.6776 46.7986 36.8822 46.7019C37.0868 46.6052 37.3082 46.5502 37.5338 46.54C37.7594 46.5299 37.9848 46.5648 38.197 46.6427C38.4093 46.7207 38.6043 46.8401 38.7709 46.9943C38.9376 47.1484 39.0726 47.3343 39.1682 47.5411C39.2638 47.748 39.3181 47.972 39.3282 48.2001C39.3372 48.2712 39.3314 48.3435 39.3114 48.4123C39.2913 48.481 39.2574 48.5448 39.2117 48.5996C39.1661 48.6545 39.1096 48.6992 39.046 48.7308C38.9824 48.7625 38.913 48.7805 38.8422 48.7836C38.7714 48.7868 38.7007 48.775 38.6346 48.7492C38.5684 48.7233 38.5083 48.6838 38.458 48.6332C38.4078 48.5827 38.3685 48.5221 38.3425 48.4554C38.3166 48.3887 38.3046 48.3173 38.3073 48.2456C38.299 48.0586 38.2175 47.8826 38.0809 47.7565C37.9443 47.6302 37.7636 47.5641 37.5788 47.5725C37.3939 47.5809 37.2199 47.6633 37.0951 47.8015C36.9703 47.9396 36.9048 48.1223 36.9132 48.3093L37.093 52.4435C37.0972 52.536 37.1193 52.6269 37.1581 52.7108C37.197 52.7947 37.2519 52.8701 37.3195 52.9326C37.3872 52.9951 37.4663 53.0435 37.5524 53.0751C37.6386 53.1066 37.7301 53.1207 37.8217 53.1166C37.9132 53.1124 38.003 53.09 38.086 53.0507C38.169 53.0114 38.2435 52.956 38.3053 52.8876C38.3671 52.8192 38.415 52.7391 38.4462 52.652C38.4774 52.5648 38.4913 52.4724 38.4872 52.3798C38.4782 52.3087 38.484 52.2364 38.504 52.1676C38.5241 52.0989 38.558 52.0351 38.6037 51.9802C38.6493 51.9254 38.7058 51.8807 38.7694 51.849C38.833 51.8174 38.9024 51.7994 38.9732 51.7963C39.044 51.7931 39.1147 51.8048 39.1809 51.8307C39.247 51.8566 39.3071 51.8961 39.3574 51.9467C39.4076 51.9972 39.447 52.0577 39.4729 52.1245C39.4988 52.1912 39.5108 52.2626 39.5081 52.3343Z" fill="#0069B4"/>
<path d="M43.9741 46.886L44.0686 53.4716C44.0686 53.6091 44.0146 53.7409 43.9185 53.8382C43.8223 53.9354 43.6919 53.99 43.5559 53.99C43.4199 53.99 43.2895 53.9354 43.1934 53.8382C43.0973 53.7409 43.0433 53.6091 43.0433 53.4716L43.0028 50.6927H41.6087L41.6491 53.467C41.6503 53.5351 41.6382 53.6028 41.6135 53.6661C41.5889 53.7295 41.5521 53.7873 41.5053 53.8363C41.4585 53.8853 41.4027 53.9245 41.3409 53.9517C41.2792 53.9788 41.2127 53.9934 41.1454 53.9946C41.0098 53.9958 40.8791 53.9431 40.7815 53.8478C40.6839 53.7525 40.6273 53.6223 40.6237 53.4852L40.5293 46.8996C40.5293 46.7621 40.5833 46.6303 40.6795 46.533C40.7756 46.4357 40.906 46.3811 41.042 46.3811C41.1779 46.3811 41.3084 46.4357 41.4045 46.533C41.5006 46.6303 41.5547 46.7621 41.5547 46.8996L41.5951 49.6739H42.9893L42.9488 46.8996C42.9488 46.7621 43.0028 46.6303 43.099 46.533C43.1951 46.4357 43.3255 46.3811 43.4615 46.3811C43.5975 46.3811 43.7278 46.4357 43.824 46.533C43.9202 46.6303 43.9741 46.7621 43.9741 46.8996V46.886Z" fill="#0069B4"/>
<path d="M48.6473 48.1594L48.5889 52.2981C48.5608 52.7444 48.3642 53.1628 48.0396 53.4665C47.7149 53.7701 47.2873 53.9359 46.8451 53.9295C46.403 53.9231 45.9802 53.7449 45.6643 53.4319C45.3485 53.1189 45.1638 52.6951 45.1484 52.2481L45.2024 48.1094C45.209 47.6474 45.3967 47.207 45.7245 46.885C46.0521 46.563 46.4928 46.3859 46.9496 46.3925C47.4065 46.3991 47.8419 46.589 48.1603 46.9204C48.4787 47.2518 48.6539 47.6974 48.6473 48.1594ZM47.622 48.1594C47.622 47.9724 47.5485 47.7931 47.4178 47.6609C47.2871 47.5288 47.1098 47.4544 46.9249 47.4544C46.74 47.4544 46.5627 47.5288 46.432 47.6609C46.3013 47.7931 46.2278 47.9724 46.2278 48.1594L46.1693 52.2981C46.1693 52.4851 46.2428 52.6644 46.3735 52.7967C46.5042 52.9289 46.6815 53.0031 46.8664 53.0031C47.0513 53.0031 47.2286 52.9289 47.3594 52.7967C47.4901 52.6644 47.5635 52.4851 47.5635 52.2981L47.622 48.1594Z" fill="#0069B4"/>
<path d="M53.2971 48.3457L53.1172 52.4799C53.1075 52.708 53.0534 52.932 52.958 53.1391C52.8627 53.3461 52.7279 53.532 52.5615 53.6864C52.3951 53.8407 52.2002 53.9605 51.9881 54.0387C51.776 54.1169 51.5506 54.152 51.3251 54.1422C51.0994 54.1323 50.878 54.0776 50.6732 53.9812C50.4686 53.8848 50.2847 53.7486 50.132 53.5803C49.9793 53.4119 49.861 53.2149 49.7837 53.0003C49.7063 52.7858 49.6715 52.5579 49.6813 52.3298L49.8567 48.1956C49.8603 47.9629 49.91 47.7332 50.0029 47.5202C50.0957 47.3072 50.2298 47.1152 50.3973 46.9555C50.5648 46.7958 50.7621 46.6717 50.9779 46.5905C51.1936 46.5093 51.4232 46.4726 51.6531 46.4826C51.8831 46.4926 52.1088 46.5492 52.3168 46.6489C52.5247 46.7486 52.7109 46.8894 52.8641 47.0631C53.0173 47.2368 53.1347 47.4398 53.209 47.6601C53.2834 47.8804 53.3133 48.1135 53.2971 48.3457ZM52.2717 48.3002C52.2794 48.1132 52.2134 47.9308 52.0882 47.7931C51.963 47.6554 51.7887 47.5735 51.6039 47.5657C51.419 47.5579 51.2386 47.6246 51.1024 47.7513C50.9662 47.8779 50.8853 48.0541 50.8775 48.2411L50.7021 52.3753C50.6983 52.4678 50.7126 52.5603 50.7441 52.6473C50.7755 52.7343 50.8236 52.8142 50.8857 52.8824C50.9477 52.9506 51.0223 53.0058 51.1055 53.0448C51.1886 53.0838 51.2784 53.1059 51.37 53.1098C51.4616 53.1137 51.553 53.0992 51.639 53.0674C51.725 53.0356 51.804 52.987 51.8715 52.9242C51.9389 52.8615 51.9935 52.786 52.0321 52.7019C52.0707 52.6179 52.0925 52.527 52.0963 52.4344L52.2717 48.3002Z" fill="#0069B4"/>
<path d="M57.1906 53.9851C57.1814 54.1219 57.1189 54.2494 57.0169 54.3398C56.9149 54.4301 56.7818 54.476 56.6464 54.4672L54.6047 54.3171C54.4695 54.3078 54.3434 54.2447 54.254 54.1415C54.1646 54.0384 54.1194 53.9036 54.128 53.7668L54.5777 47.1949C54.5924 47.0625 54.6575 46.9412 54.759 46.8563C54.8604 46.7715 54.9906 46.7298 55.1218 46.7401C55.2575 46.7505 55.3836 46.8147 55.4729 46.9185C55.5621 47.0224 55.6073 47.1576 55.5986 47.295L55.1488 53.3438L56.6779 53.4575C56.7463 53.4563 56.8143 53.4691 56.8777 53.4953C56.9411 53.5214 56.9985 53.5604 57.0465 53.6098C57.0944 53.6592 57.132 53.7179 57.1568 53.7824C57.1815 53.847 57.1931 53.916 57.1906 53.9851Z" fill="#0069B4"/>
<path d="M31.8041 8.25914C31.7171 8.28755 31.6328 8.3241 31.5523 8.36831L31.4219 8.42739C31.4219 8.45466 31.4219 8.49108 31.4579 8.51382C31.4892 8.51757 31.5209 8.51757 31.5523 8.51382C31.7016 8.46685 31.8406 8.39119 31.9616 8.29095L32.029 8.17725C31.9795 8.19999 31.9346 8.2364 31.8806 8.25914C31.8553 8.26289 31.8295 8.26289 31.8041 8.25914Z" fill="#0069B4"/>
<path d="M32.4341 8.66397L32.5195 8.54566C32.56 8.47744 32.6004 8.40468 32.6454 8.33646L32.4611 8.31372L32.1687 8.43656L32.0293 8.73672H32.2857L32.4341 8.66397Z" fill="#0069B4"/>
<path d="M35.1136 6.2309L35.3654 6.05352L35.4419 5.8716C35.3228 5.87112 35.2038 5.88178 35.0866 5.90344C34.9661 5.96077 34.8503 6.02768 34.7403 6.10355L34.6953 6.26273H34.8663L35.1136 6.2309Z" fill="#0069B4"/>
<path d="M36.698 4.04755L36.5586 4.17489H36.8689L37.1073 4.07938L37.3816 4.02026V3.89746H37.1073H36.9049L36.698 4.04755Z" fill="#0069B4"/>
<path d="M51.071 7.12227C50.9942 7.08777 50.9119 7.0677 50.8281 7.06314C50.7903 6.93922 50.7325 6.82244 50.6572 6.71748H50.4143C50.3244 6.71748 50.3244 6.71748 50.1266 6.91305C50.0096 6.91305 49.8972 6.85847 49.7802 6.85392C49.5779 6.85392 49.5194 6.8994 49.4879 6.93124C49.4736 6.94663 49.4561 6.95867 49.4367 6.96653C49.4172 6.97438 49.3964 6.97785 49.3755 6.97672H49.1641C49.1511 6.93956 49.136 6.90312 49.1191 6.86757L49.0787 6.76297C49.0472 6.71749 48.9932 6.69474 48.9528 6.65381L48.8538 6.6811C48.8538 6.71749 48.8853 6.74932 48.8988 6.7857C48.766 6.74697 48.627 6.73461 48.4895 6.74932C48.4535 6.74932 48.1792 6.8039 48.4041 7.04039C48.5165 7.04039 48.611 6.95398 48.7234 6.99491L48.9572 7.13134C48.9932 7.16775 48.9842 7.2223 49.0067 7.26778C48.82 7.22641 48.6268 7.22641 48.4401 7.26778L48.539 7.43149C48.5702 7.42476 48.6023 7.42476 48.6334 7.43149H48.8583L48.9032 7.45884C48.9258 7.53159 48.9528 7.60435 48.9797 7.68164L49.0787 7.79995H49.1956C49.308 7.79995 49.4159 7.79995 49.5329 7.79995H49.6588C49.8162 7.79995 49.9062 7.94092 50.0411 7.98187C50.0411 7.98187 50.4908 8.0819 50.4908 7.85449C50.4908 7.76353 50.4908 7.76353 50.5537 7.69078C50.6167 7.61802 50.6707 7.72712 50.7021 7.6635C50.7337 7.59982 50.7607 7.5498 50.8191 7.52706C50.8776 7.50432 50.9001 7.49518 51.3228 7.52706L51.2014 7.30872C51.1716 7.23781 51.1271 7.17427 51.071 7.12227Z" fill="#0069B4"/>
<path d="M54.6272 10.6696L54.7081 10.7015L54.7531 10.6696C54.7523 10.656 54.7523 10.6424 54.7531 10.6288V10.5878V10.5469C54.8026 10.5469 54.852 10.5469 54.8565 10.5469V10.5196V10.4832V10.415C54.8565 10.3786 54.8565 10.3422 54.8295 10.3149L54.7486 10.3559C54.7171 10.3559 54.7171 10.415 54.6901 10.4423H54.6407V10.5059C54.6407 10.5423 54.5957 10.5696 54.5957 10.6151C54.5957 10.6606 54.6182 10.6378 54.6272 10.6696Z" fill="#0069B4"/>
<path d="M35.114 14.2855C35.0713 14.2971 35.0263 14.2971 34.9836 14.2855C34.9491 14.2731 34.9174 14.2538 34.8904 14.2289C34.8633 14.2039 34.8415 14.1736 34.8262 14.14C34.7947 14.0718 34.7677 14.0581 34.7273 14.0581C34.6901 14.0648 34.652 14.0648 34.6148 14.0581L34.4395 14.1355C34.4844 14.1627 34.5384 14.1718 34.5743 14.2128C34.6103 14.2537 34.6059 14.3082 34.6328 14.3537L34.6643 14.3856C34.7024 14.4166 34.7384 14.4499 34.7722 14.4856C34.8037 14.5129 34.8262 14.5584 34.8577 14.5903C34.8786 14.6122 34.905 14.6278 34.9341 14.6358C34.9791 14.6358 35.051 14.6676 35.3029 14.3765C35.2579 14.3765 35.2264 14.3219 35.1815 14.3037C35.1605 14.293 35.1375 14.2869 35.114 14.2855Z" fill="#0069B4"/>
<path d="M38.5371 14.6628C38.3527 14.6628 38.3527 14.6628 38.2943 14.6219C38.1891 14.5646 38.0948 14.4893 38.0154 14.399C37.9978 14.3584 37.9657 14.326 37.9255 14.3081C37.8184 14.289 37.7103 14.2768 37.6017 14.2717C37.5508 14.2487 37.5013 14.2228 37.4533 14.1943C37.6017 13.9033 37.6017 13.9033 37.7726 13.8351C37.8041 13.8351 37.9255 13.6713 37.858 13.5713L37.822 13.4985C37.7832 13.5027 37.744 13.5027 37.7051 13.4985C37.6281 13.5145 37.5547 13.5454 37.4893 13.5895C37.4263 13.6532 37.4578 13.7395 37.4263 13.8124C37.3543 13.9852 37.3543 13.9852 37.2734 14.0488C37.2734 14.0488 36.6708 14.5991 36.4639 14.7947L36.3965 14.863C36.3436 14.9305 36.3081 15.0102 36.293 15.0949C36.293 15.1586 36.293 15.2177 36.293 15.2814H37.5027C37.6062 15.2814 37.6512 15.2814 37.7501 15.436C37.8443 15.5795 37.9769 15.6931 38.1324 15.7634C38.1619 15.7359 38.1973 15.7158 38.2358 15.7044C38.2808 15.7044 38.3752 15.6589 38.3707 15.295C38.3707 15.0767 38.3707 15.0767 38.5326 14.8766L38.5686 14.8357C38.5586 14.7937 38.5511 14.7512 38.5461 14.7083C38.5391 14.6943 38.536 14.6786 38.5371 14.6628Z" fill="#0069B4"/>
<path d="M55.9498 13.1075C56.0173 13.0574 56.0173 13.0574 56.0084 13.0074C55.965 12.8502 55.9062 12.6979 55.8329 12.5526C55.8329 12.5025 55.7924 12.4571 55.7744 12.4025C55.8959 12.4025 55.9094 12.3479 55.9004 12.2933C55.8914 12.2388 55.77 12.1569 55.7205 12.0796C55.671 12.0023 55.6845 11.975 55.6395 11.934C55.6161 11.9088 55.5867 11.89 55.5541 11.8795C55.5541 11.8795 55.5046 11.8795 55.4821 11.8795C55.4597 11.8795 55.4327 11.8385 55.4057 11.8295H55.3697C55.3239 11.8392 55.28 11.856 55.2393 11.8795V11.9522L55.1853 11.984C55.1181 11.9274 55.0458 11.8771 54.9694 11.834C54.9204 11.8249 54.8701 11.8249 54.821 11.834C54.8594 11.9562 54.9044 12.0761 54.956 12.1933H54.911L54.866 12.2251C54.839 12.2251 54.8166 12.2251 54.7896 12.2251H54.7581C54.7472 12.2378 54.7328 12.2467 54.7166 12.2508C54.7005 12.2549 54.6836 12.2538 54.6682 12.2479C54.5962 12.1978 54.5962 12.1978 54.5332 12.2114C54.6006 12.3843 54.6636 12.5617 54.7221 12.7345C54.7983 12.744 54.8753 12.744 54.9515 12.7345L55.0324 12.9665H54.8705C54.8076 13.0756 54.92 13.1711 54.902 13.2757C54.8435 13.3075 54.8166 13.3212 54.8795 13.4258C54.9243 13.4837 54.9855 13.5266 55.0549 13.5486C55.1179 13.5486 55.1583 13.5031 55.2168 13.5031C55.2735 13.5047 55.3285 13.5237 55.3742 13.5577C55.4372 13.5577 55.4911 13.4667 55.5001 13.4576C55.5018 13.4289 55.5018 13.4 55.5001 13.3712C55.5001 13.3349 55.5361 13.3349 55.5451 13.3075H56.1208L56.0803 13.1984C56.0308 13.212 55.9588 13.1802 55.9498 13.1075Z" fill="#0069B4"/>
<path d="M56.7195 13.2574H56.6476C56.6313 13.2708 56.6192 13.2887 56.6129 13.3088C56.6065 13.329 56.6061 13.3507 56.6116 13.3711C56.6116 13.3711 56.5846 13.3984 56.5261 13.3711H56.4812C56.5487 13.6849 56.6836 13.594 56.742 13.5576C56.9171 13.5699 57.0913 13.5927 57.2637 13.6258C57.2907 13.6258 57.3581 13.735 57.2997 13.785C57.2412 13.8351 57.0838 13.785 56.9894 13.8441C56.9936 13.8697 56.9936 13.8958 56.9894 13.9214C56.9285 13.9222 56.868 13.9313 56.8095 13.9488C56.8495 14.0197 56.8727 14.0991 56.877 14.1807C56.8591 14.2098 56.8355 14.235 56.8077 14.2545C56.7798 14.2741 56.7483 14.2877 56.715 14.2944C56.8274 14.3581 56.8274 14.3581 56.9894 14.2944L57.0478 14.2398V14.1807C57.1058 14.1944 57.1618 14.2158 57.2142 14.2444H57.4121C57.3537 14.0761 57.3537 14.067 57.3716 14.0397C57.8798 14.1261 57.8708 14.0397 57.8618 13.9533C57.9832 13.9533 58.0552 14.0806 58.1766 14.1033H58.2172C58.2981 14.0715 58.3835 14.1307 58.4645 14.1033C58.5454 14.0761 58.496 14.0397 58.4915 13.9806C58.487 13.9214 58.6174 13.9806 58.6669 13.9442C58.6669 13.8259 58.5319 13.7668 58.478 13.6759L58.4555 13.6213C58.4472 13.5993 58.4472 13.575 58.4555 13.553C58.4929 13.5508 58.5305 13.5508 58.5679 13.553C58.5679 13.553 58.5679 13.4712 58.5319 13.403H58.6533C58.6316 13.3482 58.6061 13.295 58.5769 13.2438C58.433 13.1619 58.3476 13.0073 58.2082 12.9208L58.1632 12.9482C58.1902 12.9845 58.1902 12.9845 58.1632 13.121C58.1047 13.1529 58.1047 13.1529 57.8393 12.7071H57.6595C57.6255 12.6125 57.5865 12.5199 57.5425 12.4297C57.4661 12.3342 57.3357 12.3069 57.2502 12.2205H57.1828C57.1288 12.1159 56.9894 12.0931 56.9489 11.9794C56.9084 11.8657 56.7105 11.6929 56.5891 11.6883C56.3823 11.6883 56.2023 11.611 56.3058 11.4473C56.3058 11.3973 56.3058 11.3973 56.3058 11.3791H56.4137C56.4025 11.3478 56.389 11.3173 56.3733 11.2881C56.3283 11.2108 56.4273 11.1472 56.3957 11.0698L56.2473 10.7924C56.0584 10.7924 55.865 10.7924 55.6716 10.756C55.6716 10.6969 55.6716 10.6969 55.6986 10.6696C55.7256 10.6423 55.6357 10.565 55.6357 10.5013C55.6592 10.457 55.6801 10.4115 55.6986 10.3649C55.6357 10.3103 55.6312 10.3058 55.5862 10.2966H55.4288C55.4288 10.2966 55.3749 10.3239 55.1769 10.2966C55.211 10.3796 55.2337 10.4668 55.2445 10.5559C55.2788 10.637 55.3179 10.7159 55.3614 10.7924C55.2489 10.7924 55.1545 10.7287 55.0465 10.7151C54.9386 10.7014 55.0691 10.9425 55.0735 10.9561C55.0781 10.9698 55.2489 10.9925 55.3074 11.0653V11.1153C55.3253 11.1418 55.339 11.171 55.3479 11.2017C55.3479 11.2745 55.4513 11.3109 55.4198 11.3973C55.2535 11.4382 55.2535 11.4382 55.3434 11.5974C55.3898 11.602 55.4364 11.602 55.4828 11.5974C55.4828 11.5974 55.5098 11.561 55.7032 11.7157H55.8291C55.8067 11.6722 55.7958 11.6236 55.7976 11.5746C55.7976 11.5746 56.0719 11.8294 56.045 11.9431C55.8876 11.9431 55.9685 12.0386 56.045 12.1295H56.3597V12.0841C56.5711 12.1932 56.6206 12.4661 56.8364 12.5661C56.868 12.7163 56.868 12.7163 56.8994 12.7526C56.9894 12.8572 56.9984 12.8936 56.9624 12.9391H56.769C56.706 12.9391 56.6566 12.8754 56.5846 12.8754H56.4902C56.4889 12.8997 56.4889 12.924 56.4902 12.9482V13.0255H56.3777V13.1028C56.4587 13.1301 56.7105 13.0528 56.7195 13.2574Z" fill="#0069B4"/>
<path d="M72.1045 16.7913C69.4561 11.7229 65.4907 7.48099 60.6355 4.52226C55.7802 1.56352 50.2188 0 44.5502 0C38.8816 0 33.3202 1.56352 28.4649 4.52226C23.6097 7.48099 19.6443 11.7229 16.9955 16.7913C16.0569 18.5785 15.2918 20.4535 14.7109 22.39C18.5876 21.6532 22.6172 21.062 26.7546 20.6254L28.3196 20.4707L28.4546 20.1978L28.3556 19.9522L28.6569 19.7885L28.8098 20.1432L29.0212 19.7794L29.2461 19.4611L29.4619 19.2564L29.7948 18.5923H30.3164L30.6987 18.3695L31.1034 18.3194L31.0674 18.0602L31.1754 17.519L31.5487 17.1142H31.8634L32.0208 16.8777H32.4301L32.8798 16.6413L33.1902 16.3274C33.9007 16.3002 33.9007 16.3002 34.1301 16.4411L33.9861 16.5458C33.7967 16.5455 33.6074 16.5577 33.4195 16.5821C33.0597 16.8186 33.0597 16.8186 33.0462 17.1233L33.2486 17.2279L33.5454 17.0096L33.7523 16.8823L34.1211 16.7732L34.5348 16.5866L34.9261 16.4957L35.2904 16.141L35.6276 15.8908L35.7221 15.6043L35.3129 15.7089L34.9575 16.1637H34.5078L34.1795 15.9863L33.8737 15.6816L33.8107 15.1586L34.1526 14.9312L34.2065 14.8948L34.2965 14.4809L33.8467 14.4445L33.2846 14.6082L32.6235 14.9539L32.5201 15.0358L31.9084 15.527L31.3867 15.8589L31.6431 15.5543L31.9984 15.2222L32.2188 15.063L31.8455 14.9539H32.3851L32.5965 14.6719L32.9743 14.4082H33.334L33.5769 14.0898L33.8377 13.9033H34.31L35.1779 13.8715L35.6276 13.9488L35.9874 13.9215L36.4012 13.6713L36.797 13.3257L37.3861 13.2666L37.7099 13.1483L37.8852 12.9937L37.7369 12.8436L37.8898 12.6981L37.9752 12.3843L37.5795 12.3297L37.5435 12.1477H37.0938L36.7025 12.3343L36.4417 12.4843L36.2663 12.4115L36.4057 12.1887L36.8554 12.0614L37.3546 11.9522L37.6109 11.7703H37.3096L37.0488 11.6293L36.6935 11.5292L36.5181 11.3155L36.3157 11.1063L36.2707 10.9198L36.4417 10.8834L36.5361 10.7197L36.3967 10.4013L36.2393 10.0557L36.1403 9.68723L36.0774 9.45529V9.18694L35.6276 9.54172L35.4927 9.85102L35.1375 9.96926L34.8496 10.183H34.5663L34.5933 9.98286L34.4718 9.83735L34.1571 9.9101L34.3999 9.56446L34.6293 9.10965L34.7372 8.90046H34.4224L34.2695 8.73674L34.1885 8.49566L33.9637 8.25005L33.7478 8.36836H33.433L33.361 8.28193H33.0058L32.7495 8.45018L32.7135 8.68673L32.4436 9.01416L32.3402 9.23249L32.2772 9.53265H32.0794L31.9129 9.82828L31.6881 9.992L31.7825 10.1239L31.9219 10.3286L31.7825 10.7197C31.7015 10.8652 31.6251 11.0153 31.5441 11.1745L31.1844 11.4929L30.7841 11.7475L30.3749 11.8112V12.2023C30.2894 12.3706 30.2085 12.5435 30.1275 12.7162L30.096 13.0119L29.9252 13.2575L29.6148 13.5668L29.2101 13.635V13.1802L29.1337 12.8118C29.1831 12.7072 29.2371 12.6025 29.291 12.498L29.4439 12.0432L29.6868 11.6839L29.2821 11.6247H28.9672L28.8728 11.5065L28.558 11.3928V11.1881L28.3871 10.9744L28.2252 10.747L27.7125 10.9016L27.7755 10.6833L27.9869 10.183L27.9014 10.0602L27.9329 9.86915L28.4726 9.26884L29.0302 8.81403L29.5204 8.44565L29.8712 8.30014L30.2309 8.10454L30.3479 7.89988L30.15 7.82712L29.9926 7.69522L30.2715 7.75437L30.4738 7.84073L30.6537 7.79071L30.883 7.57698L31.0315 7.68154L31.2249 7.63153L31.3913 7.46328L31.5577 7.38592L31.8185 7.16765H31.6656H31.4677L31.5127 7.0494L31.4093 6.9266H31.5621L31.7331 7.00846L31.8365 7.08576L32.1018 6.99481L32.4301 6.79016L32.4571 6.64007H32.6415L32.6055 6.78105L32.3582 6.94024L31.9804 7.24041C31.8634 7.36318 31.7465 7.49055 31.6341 7.61793L31.3553 7.70889L31.2563 7.87714H31.4587C31.4137 7.93169 31.3643 7.98177 31.4587 8.04999L31.6206 7.99991L31.8724 7.79525H32.1423H32.2682L32.3537 7.87714H32.5875L32.7809 7.66341L32.601 7.61332L32.7179 7.34958H32.4841V7.14945L32.3492 7.10397L32.4931 6.95389L32.6235 6.99027L32.8034 6.88111L32.8978 6.75832H33.1002L33.343 6.58549L33.6983 6.41267L33.8962 6.27622L33.9412 6.12614L34.1031 5.8851L34.3144 5.84416L34.5573 5.66679L34.6248 5.4985L34.5528 5.4121L34.5034 5.2802H34.7372L34.8676 5.18924H35.0161L35.043 5.28475H35.2589L35.4972 5.23927L35.5287 5.07554L35.6682 5.0437L35.6232 5.22562H35.7896L35.6816 5.40755L35.794 5.43484L35.7401 5.57128L35.8346 5.6395L35.7581 5.81232L35.884 5.88054V6.06246L35.7356 6.28532L35.2859 6.53092L34.8856 6.78105L34.8092 7.02211L34.3999 7.08123L34.247 7.0312H34.0401L33.6219 7.24494C33.5619 7.31472 33.5034 7.38748 33.4465 7.46328L33.7118 7.51329H33.9727L34.1301 7.39052L34.2965 7.31316L34.4269 7.35411L34.6652 7.44507L34.7597 7.74976L34.7147 7.92262L34.7687 8.13635H35.0475L35.1779 8.42744H35.6276L35.857 8.55935L35.9739 8.37743L35.6951 8.01358L35.5872 7.85893V7.68615L35.803 7.84533L36.1853 8.11361L36.3877 8.26826C36.4282 8.18183 36.4731 8.09548 36.5181 8.00451L36.7924 7.77251L36.608 7.63606L36.743 7.28589L36.4731 7.16765L36.3472 6.74468L36.5541 6.62642L36.752 6.51727L37.0263 6.90386L37.0758 7.15851L37.2871 7.19946L37.521 6.89931L37.8628 6.79016L37.9707 6.67645H38.1641L38.3125 6.54456L38.3935 6.35354H38.0247C38.0458 6.32121 38.0653 6.28781 38.0832 6.25348L37.9618 6.0943L37.8268 6.06701L37.6604 5.97605H37.4895L37.53 5.83961L37.557 5.72136H37.2691H37.1657L37.3186 5.52125H37.5165L37.6874 5.42574L37.4805 5.36661L37.5749 5.28475H37.7189L37.6829 5.15285L37.5345 5.10283L37.7144 4.98003L37.5929 4.90271H37.3681L37.4265 4.8072H37.2647L37.2152 4.78446L37.4535 4.6935L37.3276 4.63438L37.0308 4.69805L37.0578 4.53887L37.1477 4.45246H37.0218L37.1387 4.34785L37.0263 4.27508H36.761L36.6126 4.36149H36.4507H36.3607L36.1763 4.46609H36.0324L36.2123 4.33421L36.4641 4.20686L36.5811 4.04768L36.7564 3.91124H36.5451L36.2753 4.01584H36.1179L35.9065 4.09316L35.6456 4.2387L35.4882 4.40243L35.2724 4.50703L35.097 4.71624L34.9621 4.74353L35.0745 4.56615L35.3848 4.32965L35.6096 4.17957L35.9605 4.02494L36.3023 3.89759H36.1179L35.929 3.92488C36.2213 3.82937 36.5136 3.75205 36.8014 3.66564H36.8779H36.9274C36.9565 3.65385 36.9866 3.64472 37.0173 3.63835L36.9858 3.68383C37.3771 3.652 37.3771 3.652 37.4895 3.58378C37.5531 3.5402 37.6252 3.51075 37.7009 3.49736L37.8178 3.42914C38.4654 3.27451 39.122 3.13352 39.7831 3.02437C39.8004 3.0352 39.8156 3.04906 39.8281 3.06529H39.7876H39.7561H39.7337H39.7831H39.8056H39.8325L39.8911 3.00618H39.9225H40.008H40.1339L40.1699 2.97889H40.2328C40.2594 2.98602 40.2873 2.98602 40.3138 2.97889H40.3408H40.3632H40.3902H40.4442H40.4757H40.5342L40.5656 3.00618H40.6691H40.7005H40.8355L40.8669 3.03346H40.9479V3.0744H40.9839H41.0333V3.11532C40.9956 3.15546 40.9625 3.1997 40.9344 3.24722V3.27905H40.9749V3.32908V3.37456V3.56558L41.0333 3.89759V3.92033C40.9883 3.95217 40.9839 3.95672 40.9973 4.03858L40.9344 4.13409C40.8625 4.17957 40.8625 4.17957 40.8445 4.22505H40.9434C40.928 4.25634 40.9047 4.283 40.8759 4.30237C40.846 4.30283 40.8168 4.31064 40.7905 4.32511C40.759 4.37059 40.75 4.43426 40.7095 4.47519H40.6241C40.6108 4.50341 40.5958 4.53076 40.5792 4.55706V4.60254H40.6646H40.7455H40.786C40.8653 4.6092 40.9451 4.6092 41.0243 4.60254C41.0469 4.55706 41.0469 4.55706 41.2627 4.52977C41.2402 4.62073 41.2133 4.73443 41.3841 4.73898H41.4156C41.4622 4.77308 41.5058 4.81112 41.546 4.85268V4.89361L41.519 4.93455H41.4066H41.3616H41.2537C41.1593 4.93455 41.1053 4.93455 41.0603 4.86178C40.723 4.82994 40.687 4.86178 40.687 4.95729L40.75 5.02551C40.6691 5.12102 40.5026 5.08463 40.4397 5.22108L40.4667 5.26201C40.6601 5.26201 40.6601 5.26201 40.7365 5.39845H40.786C40.8307 5.35334 40.8855 5.31984 40.9459 5.30084C41.0062 5.28183 41.0702 5.27787 41.1323 5.2893C41.1549 5.23837 41.1715 5.18495 41.1817 5.13011C41.1205 5.13673 41.0586 5.13673 40.9973 5.13011V5.08918C40.9691 5.09394 40.9402 5.09394 40.9119 5.08918L40.9524 5.0437H41.0828C41.1458 5.09373 41.1458 5.09373 41.2807 5.11647H41.4201C41.4492 5.12024 41.477 5.13117 41.501 5.14831V5.19379V5.22108C41.4426 5.24836 41.4111 5.30294 41.3616 5.33933V5.38481C41.4201 5.45757 41.4201 5.45758 41.4291 5.50306C41.4381 5.54854 41.3976 5.59402 41.3841 5.6395C41.3243 5.6449 41.2641 5.6449 41.2043 5.6395C41.1368 5.6395 41.0873 5.72591 41.0063 5.72136H40.9299C40.9003 5.71454 40.8695 5.71454 40.84 5.72136C40.8166 5.80529 40.7751 5.88295 40.7185 5.94877L40.6376 5.91693C40.3498 6.06246 40.3498 6.06246 40.3452 6.0943C40.3406 6.11679 40.3406 6.14004 40.3452 6.16252C40.3494 6.19265 40.3586 6.22185 40.3722 6.24893C40.5566 6.29441 40.5702 6.34444 40.5702 6.35809C40.5702 6.49453 40.3588 6.4536 40.3588 6.59459V6.64007C40.3588 6.64007 40.3858 6.72648 40.4082 6.82654C40.5162 6.86293 40.6016 6.76742 40.7095 6.77651H40.795V6.8129C40.7842 6.84293 40.7707 6.87187 40.7545 6.89931H40.6781H40.6376C40.4892 7.26768 40.4892 7.26768 40.5252 7.32684C40.6961 7.32684 40.804 7.14038 40.9749 7.17219C40.958 7.25656 40.9324 7.33888 40.8984 7.4178C40.8355 7.48148 40.732 7.47688 40.6691 7.5315C40.739 7.83449 40.8416 8.12884 40.9749 8.40924C41.2402 8.80949 41.4606 9.00502 41.6315 8.99142H41.7304C41.7761 8.96698 41.8271 8.95444 41.8788 8.95501H41.9238C41.9688 8.95501 42.0137 8.95501 42.0587 8.98235C42.0587 9.24156 42.3511 9.20515 42.468 9.34613C42.5309 9.41895 43.0256 9.42802 43.0166 9.19608C43.0166 9.19608 43.0166 9.1506 43.0166 9.09598C43.0391 8.8095 43.5159 8.52294 43.2145 8.25919C43.2145 8.25919 43.0256 8.07727 43.3225 8.05453H43.4214C43.4677 8.04914 43.5144 8.04914 43.5608 8.05453C43.617 7.92928 43.7117 7.82564 43.8306 7.7589C43.8297 7.65292 43.8434 7.5473 43.8711 7.44507L43.8981 7.41326C43.9012 7.36608 43.8926 7.31883 43.8729 7.2759C43.8533 7.23297 43.8232 7.19578 43.7856 7.16765V7.12671C43.8801 7.06303 44.0016 7.12671 44.0914 7.0403C44.1814 6.95389 44.0915 6.92204 44.1184 6.86292H44.4827C44.4699 6.79838 44.4699 6.73189 44.4827 6.66736C44.5497 6.65616 44.6181 6.65616 44.6851 6.66736C44.6851 6.81289 44.6851 6.81744 44.7121 6.86747C44.8965 6.86747 45.0269 6.71284 45.1933 6.64007H45.2608C45.3336 6.64692 45.4069 6.63273 45.4721 6.59914V6.55366C45.5261 6.44905 45.6385 6.39447 45.7015 6.30351C45.7645 6.21255 45.7689 6.27622 45.8274 6.13978L45.9263 6.1034C45.9214 6.09192 45.9188 6.07954 45.9188 6.06701C45.9188 6.05449 45.9214 6.0421 45.9263 6.03063C46.0388 5.93058 46.0388 5.93058 46.0073 5.80323H46.0748H46.1017H46.1332L46.1647 5.83051C46.2102 5.8443 46.2587 5.8443 46.3041 5.83051C46.4346 5.83051 46.5425 5.91238 46.6729 5.91238C46.8033 5.91238 46.8483 5.67134 47.0192 5.67588C47.1901 5.68043 47.2395 5.58492 47.361 5.60311C47.4824 5.62131 47.4644 5.36661 47.6038 5.32113H47.8647C47.9141 5.29385 47.9141 5.29385 47.9816 5.18469L47.9591 5.14831L47.9051 5.12557L47.8467 5.18924V5.24382H47.7792C47.6848 5.24382 47.6308 5.11647 47.5274 5.12102H47.4554C47.1541 5.12102 47.1001 5.01186 47.0731 4.96638C47.0461 4.9209 47.0731 4.90726 47.0371 4.87997C47.379 4.82539 47.379 4.82539 47.4419 4.76627C47.5858 4.82539 47.6128 5.0346 47.7927 5.0528L47.8197 5.02096V4.94364C47.9051 4.90726 47.9996 4.94364 48.0805 4.91181C47.9726 4.75717 47.7882 4.6935 47.6308 4.57525C47.4734 4.457 47.3295 4.44335 47.2575 4.27053H47.298C47.4869 4.38424 47.4869 4.38424 47.5004 4.38424H47.5768H47.6218L47.5408 4.23415C47.5238 4.21278 47.5116 4.18797 47.5049 4.16138C47.4922 4.13461 47.4735 4.1112 47.4502 4.09302C47.427 4.07484 47.3999 4.06239 47.3711 4.05665C47.3423 4.05091 47.3126 4.05204 47.2842 4.05996C47.256 4.06788 47.2298 4.08236 47.2081 4.10226C47.1606 4.10323 47.1138 4.09062 47.0731 4.06587L47.1406 4.00675C47.1406 4.00675 47.1406 4.00675 46.9787 3.93398V3.90669H47.1406C47.1637 3.93709 47.1847 3.96899 47.2036 4.0022C47.265 4.00592 47.3265 4.00592 47.388 4.0022V3.96581H47.5094C47.5993 4.0022 47.5993 4.0022 47.6488 3.96581C47.6892 3.72931 47.343 3.82937 47.1991 3.72931V3.68838C47.3835 3.72931 47.4329 3.68838 47.4599 3.68838V3.6429H47.5049H47.5588C47.587 3.64967 47.6162 3.64967 47.6443 3.6429C47.5094 3.5201 47.307 3.50191 47.1946 3.34728C47.1946 3.34728 47.1946 3.34728 47.3025 3.34728L47.1856 3.23813C47.1387 3.21867 47.0948 3.19264 47.0551 3.1608C47.0551 3.1608 47.0551 3.1608 47.0237 3.13352C47.0029 3.12055 46.9801 3.11132 46.9562 3.10623C46.8483 3.0744 46.7313 3.07894 46.6459 2.99707C46.6729 2.96978 46.6729 2.96978 46.7583 2.9516H46.8258C46.8841 2.95571 46.9402 2.97619 46.9877 3.01072L47.0192 3.0471C47.026 3.06208 47.0351 3.07589 47.0461 3.08804C47.0461 3.11533 47.1001 3.13352 47.1946 3.19719H47.2171L47.0911 3.08349L46.9652 2.97434V2.9334H46.9383C46.8707 2.89702 46.8707 2.89702 46.7313 2.88793H46.6279C46.5983 2.86635 46.5737 2.83839 46.556 2.80606H46.5964H46.6279H46.6729C46.6099 2.76968 46.4076 2.706 46.3401 2.74694V2.78787C46.2835 2.76948 46.2345 2.73271 46.2007 2.68326V2.65143C46.7224 2.68326 47.244 2.72874 47.7567 2.78787C51.4167 3.21308 54.9601 4.353 58.1904 6.14433L57.8845 5.98969H57.8215C57.8842 6.0249 57.9442 6.0644 58.0015 6.10794H57.9565C57.8756 6.06275 57.7975 6.01263 57.7226 5.95786L57.6731 5.92147C57.5712 5.87746 57.4733 5.82418 57.3808 5.76229H57.3179L57.3584 5.80777L57.057 5.70772L56.9356 5.64404H56.9851L56.8546 5.55309C56.6849 5.45355 56.5015 5.37999 56.3105 5.33478L56.5353 5.47122C56.4657 5.45206 56.399 5.42297 56.3375 5.38481C56.3094 5.36501 56.2824 5.34375 56.2565 5.32113C56.2265 5.29921 56.1949 5.27946 56.1621 5.26201H56.0047C56.1009 5.31401 56.194 5.37172 56.2835 5.43484L56.3735 5.49396L56.4274 5.5258H56.4049C56.3033 5.44808 56.1931 5.38245 56.0766 5.33023C56.0513 5.32599 56.0255 5.32599 56.0002 5.33023L55.8158 5.21653H55.7708L55.8068 5.25291H55.7618C55.8158 5.30294 55.8832 5.34387 55.9417 5.38935C55.8719 5.36794 55.8064 5.33405 55.7483 5.2893C55.7152 5.26564 55.6764 5.2515 55.6359 5.24836L55.6089 5.2893C55.7121 5.3987 55.848 5.47064 55.9957 5.49396L56.1621 5.59856H56.1081C56.0277 5.56894 55.9449 5.54612 55.8608 5.53034H55.8742C55.9843 5.59467 56.0882 5.66928 56.1846 5.7532C55.9642 5.66679 55.7573 5.54399 55.546 5.44393C55.546 5.48032 55.5819 5.50761 55.6269 5.53944C55.7715 5.615 55.9024 5.71498 56.0136 5.83507C55.9462 5.83507 55.9462 5.83506 55.7438 5.69862L55.7798 5.74865L55.7438 5.78048L55.8382 5.86235C55.9058 5.90783 55.9912 5.92147 56.0586 5.97605L56.1441 6.03972L56.1756 6.07156C56.0017 6.00071 55.8346 5.91394 55.6764 5.81232C55.7124 5.87429 55.7635 5.92595 55.8248 5.96241H55.7168C55.7168 5.98969 55.7168 5.98969 55.8742 6.08975C55.8451 6.1064 55.813 6.11721 55.7798 6.12159L55.8248 6.208C55.8462 6.24429 55.872 6.27787 55.9012 6.30806H55.8652L55.8878 6.35354C55.916 6.35865 55.9449 6.35865 55.9732 6.35354C55.9643 6.32233 55.9643 6.28924 55.9732 6.25803H56.0272V6.21255C56.0529 6.19293 56.0743 6.16817 56.0901 6.13978C56.1397 6.13582 56.1895 6.14363 56.2356 6.16258C56.2816 6.18153 56.3227 6.2111 56.3555 6.24893H56.2565L56.2925 6.28532H56.243C56.3305 6.41553 56.435 6.53331 56.5533 6.63552H56.4993C56.4993 6.63552 56.8906 7.28589 56.9491 7.36318L56.8951 7.3177C56.8726 7.42687 56.8726 7.42687 56.8951 7.45874C56.866 7.47525 56.8414 7.4987 56.8232 7.52697L56.9041 7.61793H56.9536C56.9908 7.61148 57.0288 7.61148 57.066 7.61793C57.0978 7.661 57.134 7.70067 57.174 7.73616C57.1612 7.76833 57.1522 7.8019 57.147 7.83619H57.0975C57.0975 7.91809 57.0975 7.92715 57.0705 7.97263C57.0922 8.02166 57.1177 8.06884 57.147 8.11361L57.111 8.15456L56.9851 8.09087H56.8816L56.9581 8.19097L57.0616 8.28193V8.33195H57.012H56.9716C56.9266 8.37743 56.9266 8.37743 56.9086 8.46839H56.8636V8.5184C56.9221 8.58209 57.039 8.71853 56.8636 8.714C56.8477 8.74418 56.8357 8.77627 56.8277 8.8095C56.9536 8.93687 56.9536 8.93687 56.9671 8.97321L56.9356 9.01416C56.9851 9.13693 57.102 9.19608 57.1694 9.29611C57.237 9.39621 57.1694 9.33252 57.138 9.33252V9.38254C57.1663 9.43022 57.1978 9.47584 57.2324 9.51898H57.3628C57.5023 9.49171 57.5517 9.64636 57.5562 9.64636L57.5293 9.69184C57.555 9.73895 57.5836 9.7845 57.6147 9.82828L57.5742 9.86009C57.6327 9.992 57.6327 9.992 57.8845 10.0238C57.9195 10.0738 57.9496 10.1271 57.9745 10.183V10.2285C57.9745 10.2739 57.9745 10.2739 57.9745 10.2876C57.9745 10.3012 58.0284 10.3286 58.0464 10.3558L58.0779 10.4059H58.2488L58.2892 10.4377C58.2892 10.4377 58.2892 10.4377 58.4287 10.5468L58.5052 10.515C58.5726 10.515 58.6266 10.5878 58.6985 10.5741C58.6985 10.5741 58.7795 10.5741 58.757 10.4968V10.465C58.8199 10.465 58.8199 10.465 58.8335 10.465V10.4149C58.8335 10.3831 58.8109 10.3649 58.8109 10.3331V10.2739C58.8109 10.2194 58.8109 10.1648 58.775 10.1102L58.8199 10.083H58.8649C58.867 10.0537 58.8629 10.0244 58.8528 9.99695C58.8427 9.96947 58.8269 9.94453 58.8065 9.92377C59.0043 9.95105 59.2067 10.2603 59.2112 10.2649C59.2877 10.3604 59.427 10.4286 59.499 10.5241L59.5215 10.5605V10.7197C59.5836 10.7949 59.6546 10.8622 59.7329 10.9198C59.9083 11.0198 59.9083 11.0198 59.9577 11.0835L60.0072 11.1518L60.0522 11.22C60.142 11.341 60.2572 11.4404 60.3895 11.5111C60.4366 11.5335 60.4758 11.57 60.5019 11.6156C60.5379 11.6748 60.5379 11.7384 60.5694 11.793V11.8294L60.6818 11.9749H61.0326C60.8887 11.7248 60.8887 11.7248 60.9112 11.6611C60.9337 11.5974 60.9112 11.6611 60.9606 11.6611H61.0101C61.0596 11.6611 61.0911 11.7293 61.1495 11.7157C61.208 11.7021 61.1271 11.6475 61.1495 11.6156C61.172 11.5838 61.1765 11.6156 61.2349 11.6156L61.0911 11.4064H61.2755C61.2386 11.3452 61.1965 11.2873 61.1495 11.2336H61.0641C60.9786 11.2655 60.9426 11.179 60.8752 11.1563L60.8392 11.0381C60.7762 10.8561 60.6188 10.7242 60.5514 10.5423H60.5738V10.4786L60.6054 10.4559V10.4059H60.6548C60.6285 10.2854 60.5862 10.1691 60.5289 10.0602L60.4614 9.98286C60.376 9.88736 60.358 9.86462 60.1781 9.87829C60.0477 9.73271 59.8498 9.65996 59.7284 9.49171L59.2787 8.98235C59.2787 8.80496 59.0943 8.72307 59.0628 8.55935H59.1168C59.1168 8.5048 59.1168 8.47746 59.0583 8.36836C59.0862 8.36014 59.1158 8.36014 59.1437 8.36836C59.1194 8.30134 59.0828 8.23957 59.0359 8.18644V8.13635H59.0853C59.0538 7.83166 58.73 7.82259 58.5861 7.63153V7.58605C58.5239 7.50848 58.4562 7.43551 58.3838 7.36778C58.4173 7.35631 58.4536 7.35631 58.4872 7.36778H58.5726C58.6311 7.40413 58.721 7.45874 58.8379 7.54057V7.49055C58.9099 7.49055 58.9099 7.49055 59.1483 7.65427L59.3776 7.8544H59.2787C59.6025 8.14096 59.6384 8.17276 59.6474 8.28193L59.544 8.25005L59.508 8.28647C59.6981 8.68389 59.964 9.03945 60.2905 9.33252L60.3715 9.35526C60.67 9.59259 60.9909 9.7998 61.3294 9.97379C61.3316 9.93745 61.3316 9.90096 61.3294 9.86462C61.4014 9.86462 61.4689 9.90103 61.5408 9.88736C61.5312 9.85761 61.5237 9.82722 61.5183 9.7964C61.6088 9.77826 61.7021 9.77826 61.7926 9.7964V9.74185H61.8376C61.9087 9.80448 61.9838 9.86221 62.0625 9.91464H62.2199L62.2918 9.98286L62.3188 10.0283C62.271 10.0346 62.2227 10.0346 62.1749 10.0283C62.1749 10.1102 62.1749 10.1102 62.3098 10.3786C62.1749 10.3786 62.094 10.2512 61.977 10.2103L61.941 10.2512C61.8907 10.2476 61.841 10.2385 61.7926 10.2239L61.7612 10.2603V10.3058C61.7269 10.2976 61.6936 10.2854 61.6622 10.2694L61.6217 10.2967C61.6802 10.4104 61.7297 10.4878 61.7297 10.4878V10.515H61.6757H61.6397L61.5588 10.4604L61.5048 10.3968H61.4463L61.4913 10.4604H61.5228H61.5768L61.6442 10.5059C61.5884 10.5139 61.5366 10.5393 61.4958 10.5787C61.5311 10.6442 61.5831 10.699 61.6463 10.7374C61.7096 10.7757 61.7818 10.7963 61.8556 10.797C61.8756 10.7427 61.8756 10.683 61.8556 10.6287C62.112 10.6651 62.4582 11.0835 62.4582 11.0835C62.4133 11.1881 62.4133 11.1881 62.5077 11.3245C62.5077 11.3837 62.5077 11.3837 62.4762 11.3792C62.4447 11.3746 62.4357 11.3792 62.1479 11.1245H62.1074L61.9995 10.988H61.9186C62.0476 11.446 62.2819 11.8668 62.6021 12.216L62.6291 12.2842C62.2559 12.1932 62.2559 12.1932 62.2154 12.1978C62.2469 12.3751 62.4177 12.4434 62.5077 12.5753H62.4717C62.3053 12.4707 62.1524 12.3479 61.995 12.2387C61.9546 12.2387 61.9546 12.2387 61.7882 12.5798C61.7342 12.5798 61.6622 12.5798 61.6082 12.5798C61.4103 12.8072 61.2035 12.448 61.1361 12.3251H61.0326C61.035 12.3524 61.035 12.3797 61.0326 12.407H60.9426H60.8032H60.7178C60.7403 12.457 60.7762 12.5252 60.8032 12.5707C60.8302 12.6162 60.7582 12.6253 60.7223 12.6253C60.5784 12.5935 60.5739 12.5889 60.457 12.4206H60.394H60.2861L60.2141 12.2888L60.1601 12.216C60.1831 12.1895 60.213 12.1699 60.2463 12.1594C60.2796 12.149 60.3152 12.1481 60.349 12.1569C60.4614 12.1887 60.5649 12.266 60.6728 12.2978L60.7313 12.2342C60.6368 12.0295 60.43 11.6611 60.4255 11.6611C60.4088 11.6417 60.388 11.6263 60.3646 11.6161C60.3413 11.6059 60.316 11.6011 60.2905 11.602L60.1331 11.6611C60.1311 11.6868 60.1311 11.7127 60.1331 11.7384C60.1331 11.7976 60.1061 11.7976 60.0971 11.7976C60.0467 11.7718 60.0054 11.7308 59.9788 11.6803C59.9523 11.6299 59.9417 11.5723 59.9487 11.5156L59.8678 11.3928C59.4856 11.4382 59.58 10.9016 59.2832 10.8197C59.2832 10.8197 59.2832 10.8197 59.3236 11.079L59.1797 11.1563C59.2055 11.2055 59.2373 11.2514 59.2742 11.2927C59.2832 11.3103 59.2937 11.3271 59.3056 11.3427C59.3056 11.3427 59.3056 11.3974 59.3056 11.4246L59.2337 11.4792C59.2607 11.5793 59.2607 11.5792 59.7464 12.1432C59.7641 12.1648 59.7779 12.1895 59.7869 12.216C59.7869 12.266 59.8363 12.3297 59.8543 12.3797C59.8723 12.4298 60.0252 12.5617 60.1017 12.6572C60.1781 12.7527 60.1691 12.7799 60.1961 12.8299H60.1107C60.0499 12.8435 59.9883 12.8526 59.9263 12.8573H59.8543C59.7441 12.8297 59.6304 12.819 59.517 12.8254C59.517 12.8527 59.517 12.8891 59.517 12.9164C59.4647 12.9403 59.4185 12.9761 59.3821 13.021C59.4091 13.1757 59.4091 13.1756 59.3326 13.2529L59.2562 13.1984C59.2324 13.1947 59.2081 13.1947 59.1842 13.1984H59.1258H59.0448C59.0427 13.2479 59.0553 13.297 59.0808 13.3394L59.2337 13.4167C59.2697 13.4985 59.3146 13.585 59.3506 13.6668C59.1932 13.6668 59.1617 13.7077 58.9999 14.0034H58.766C58.8027 14.1595 58.8539 14.3117 58.9189 14.4582C58.8063 14.4414 58.6914 14.4555 58.5861 14.4991C58.6077 14.5797 58.6347 14.6587 58.667 14.7356H58.4242C58.3748 14.7083 58.3748 14.7083 58.1858 14.6811C58.1094 14.6356 58.1004 14.6128 58.0914 14.5855C58.0469 14.543 57.9902 14.5159 57.9295 14.5082C57.9215 14.5927 57.9371 14.6778 57.9745 14.7538L58.0509 14.7901C58.0734 14.8448 58.1004 14.9175 58.1184 14.9767L58.1814 15.0585C58.1814 15.0585 58.1814 15.0994 58.2038 15.1222V15.1586C58.037 15.1726 57.8694 15.1477 57.7137 15.0858C57.6517 15.0627 57.5951 15.0271 57.5472 14.9812L57.3538 15.0585C57.21 15.1177 57.2054 15.1267 57.1874 15.1586C57.197 15.1852 57.2045 15.2126 57.21 15.2404C57.2819 15.2996 57.3044 15.3041 57.3269 15.3041C57.3711 15.3608 57.4279 15.4061 57.4928 15.4361C57.5578 15.4662 57.6289 15.4802 57.7001 15.477H57.7946C57.97 15.5997 58.1274 15.7316 58.2982 15.8636C58.3658 16.0273 58.4152 16.1682 58.4602 16.3184C58.775 16.6913 59.3102 17.3189 58.9819 17.6827C58.9819 17.6827 58.9819 17.7419 58.9819 17.7691C58.8155 17.892 58.8155 17.892 58.7345 17.9056H58.6625C58.4141 17.8403 58.1753 17.7424 57.952 17.6145C57.6731 17.6145 57.4573 17.5827 57.237 17.5736C56.9356 17.5327 56.9356 17.5327 56.8816 17.4963C56.8277 17.4599 56.7872 17.4553 56.7737 17.4553L56.7063 17.5008C56.7158 17.5305 56.7233 17.5609 56.7287 17.5917C56.604 17.6457 56.4678 17.666 56.333 17.6509L56.3105 17.7373C56.5443 18.0102 56.4544 18.4195 56.7063 18.6879C56.7467 18.8743 56.7827 19.0471 56.8142 19.22V19.3019C56.5533 19.5702 56.6883 19.793 56.8142 20.0022L56.8726 20.075V20.1296C57.931 20.2024 58.9804 20.2872 60.0207 20.3843L60.2006 20.3161L60.1331 20.0159C60.036 19.9161 59.9688 19.7905 59.9394 19.6536C59.91 19.5168 59.9195 19.3744 59.9667 19.2427C59.9667 19.1882 59.9893 19.12 59.9982 19.0699H60.1691C60.2034 19.0233 60.2293 18.9709 60.2456 18.9153C60.2954 18.8871 60.3506 18.87 60.4075 18.8652V18.7879L60.8258 18.747C60.8438 18.6569 60.8343 18.5633 60.7988 18.4786L60.7762 18.3923C60.7006 18.2288 60.6535 18.0534 60.6368 17.8738C60.7718 17.7873 60.7718 17.7873 61.0596 17.8738H61.0911C61.1987 17.9438 61.3152 17.9989 61.4373 18.0375H61.5993H61.6802C61.6725 17.921 61.6846 17.8041 61.7162 17.6919C61.7625 17.6866 61.8093 17.6866 61.8556 17.6919C61.914 17.6919 62.049 17.6918 62.1254 17.4372C62.5751 17.569 62.6876 18.0966 63.0608 18.3468C63.1868 18.4195 63.1868 18.4195 63.2722 18.5696C63.8793 19.0244 65.0037 19.8112 65.1296 20.4935C64.8733 20.5435 64.8733 20.5435 64.8463 20.6799C64.6194 20.7043 64.3902 20.692 64.1672 20.6435L64.2122 20.7527C64.2746 20.7943 64.3334 20.8415 64.3876 20.8936L65.1026 20.9801V20.9164C65.1926 20.8528 65.233 20.7391 65.3364 20.689C65.3364 20.5662 65.305 20.448 65.2825 20.3297C65.322 20.2896 65.3695 20.2586 65.4219 20.2388C65.4377 20.1885 65.4377 20.1344 65.4219 20.0841C65.3987 20.0346 65.3806 19.9827 65.368 19.9295H65.1836C65.1116 19.884 65.0981 19.8476 65.0936 19.8158C65.0915 19.787 65.0915 19.7581 65.0936 19.7293C65.1574 19.6919 65.2325 19.6789 65.305 19.693C65.4164 19.7356 65.5122 19.8117 65.5793 19.9113C65.5793 19.7248 65.4714 19.5838 65.4174 19.4201C65.133 19.303 64.8869 19.1076 64.7069 18.8561C64.473 18.8561 64.3426 18.6105 64.1312 18.5515C64.0458 18.2876 63.7894 18.1603 63.65 17.9465C63.6278 17.9413 63.6048 17.9413 63.5825 17.9465C63.4116 17.6327 63.4116 17.6327 63.2182 17.6372C63.1757 17.5671 63.141 17.4924 63.1148 17.4144L63.1418 17.3325C63.1688 17.2598 63.1643 17.2461 63.1418 17.2325C62.9979 16.9642 62.9979 16.9642 62.9979 16.9324C63.2812 16.8914 64.347 18.0147 64.3786 18.0284C64.4119 18.0797 64.4572 18.1219 64.5106 18.1513C64.5639 18.1807 64.6236 18.1962 64.6843 18.1967L64.7473 18.2967C64.9407 18.5378 65.2735 18.5969 65.4534 18.8561C65.7322 19.2609 65.8087 19.7658 66.0605 20.1842C66.1166 20.1888 66.1722 20.198 66.2269 20.2114C66.3051 20.3329 66.3629 20.4666 66.3978 20.6072H66.2674C66.2674 20.5799 66.2674 20.548 66.2674 20.5207L66.1865 20.4935C66.1865 20.6435 66.3079 20.7936 66.5148 21.0028C66.5148 20.971 66.5552 20.9255 66.5732 20.8982C66.6345 20.9326 66.6882 20.9794 66.7308 21.0357C66.7733 21.0921 66.8039 21.1568 66.8206 21.2257L67.2028 21.2757C67.2013 21.2469 67.2013 21.2181 67.2028 21.1893C67.173 21.1381 67.156 21.0804 67.1533 21.021L67.2163 20.9755C67.2599 21.0099 67.3005 21.0479 67.3377 21.0892H67.4322C67.4637 20.9755 67.4637 20.9755 67.3827 20.7345H67.4637L67.4907 20.6572C67.3603 20.4616 67.3467 20.4616 67.2478 20.4298C67.2883 20.5164 67.3171 20.6082 67.3333 20.7027C67.2703 20.7027 67.1264 20.6617 66.6272 19.8885C66.6002 19.8022 66.5867 19.7703 66.5777 19.743C66.5687 19.7157 66.5777 19.6793 66.5777 19.6566L66.6452 19.7021C66.7711 19.834 66.7711 19.834 66.852 19.8522H66.9825C66.9825 19.7521 66.9825 19.7521 66.8835 19.6384C66.8859 19.6066 66.8859 19.5747 66.8835 19.5429C67.1039 19.411 67.2208 19.6703 67.4007 19.7021C67.5131 19.8931 67.5131 19.8931 67.5446 19.9204C67.5841 19.9691 67.6146 20.0245 67.6346 20.0841L67.5761 20.1432C67.648 20.3934 67.8999 20.548 67.9494 20.8164C67.9747 20.8698 67.9929 20.9264 68.0034 20.9846C68.0034 21.021 68.0034 21.0483 68.0303 21.0756C68.0733 21.1618 68.1214 21.2453 68.1742 21.3257L68.2057 21.3712L68.2372 21.3985C70.3149 21.6987 72.3524 22.0353 74.3353 22.4082C73.7721 20.4677 73.0254 18.5867 72.1045 16.7913Z" fill="#0069B4"/>
<path d="M72.1128 46.2309C71.7622 46.8949 71.3931 47.5452 70.9978 48.182L70.8088 48.4867C70.7143 48.6368 70.6154 48.7869 70.5164 48.9415L86.5087 47.1815C82.137 45.9474 77.6881 44.9074 73.1606 44.0615C72.9041 44.0114 71.1643 43.6977 70.5479 43.6067C70.2735 44.2161 69.9767 44.8073 69.6484 45.3895L70.9978 45.6214C71.2273 45.6624 71.4476 45.6987 71.6899 45.7442L72.2928 45.8488V45.8716L72.1128 46.2309Z" fill="#104171"/>
<path d="M17.2466 45.8081L17.5119 45.7581L18.191 45.6399L18.7217 45.5444L19.4592 45.4215C19.1399 44.8349 18.8386 44.239 18.5598 43.6023C18.5598 43.6023 18.5598 43.6023 18.5328 43.6023C17.8537 43.7206 17.1836 43.8388 16.491 43.9661L15.7355 44.1072C11.3522 44.938 7.03333 45.9552 2.77894 47.1589H2.75195L18.5463 48.9235C17.9048 47.9478 17.3177 46.9366 16.7879 45.8945L16.9857 45.8581L17.2466 45.8081Z" fill="#104171"/>
</svg>
