<svg width="16" height="16" viewBox="0 0 16 16" fill="none" xmlns="http://www.w3.org/2000/svg">
<path fill-rule="evenodd" clip-rule="evenodd" d="M15.1673 12V4.66663C15.1673 3.56206 14.2719 2.66663 13.1673 2.66663L2.83398 2.66664C1.72941 2.66664 0.833984 3.56207 0.833984 4.66664V12C0.833984 13.1045 1.72941 14 2.83398 14L13.1673 14C14.2719 14 15.1673 13.1045 15.1673 12ZM13.834 6.17293V12C13.834 12.3681 13.5355 12.6666 13.1673 12.6666L2.83399 12.6666C2.4658 12.6666 2.16732 12.3681 2.16732 12L2.16732 6.17285L6.8761 9.37481C7.55482 9.83634 8.44662 9.83634 9.12534 9.37481L13.834 6.17293ZM13.8264 4.5657C13.7778 4.2454 13.5012 3.99996 13.1673 3.99996L2.83398 3.99997C2.50013 3.99997 2.2236 4.24537 2.17492 4.56562L7.62584 8.27225C7.85208 8.42609 8.14935 8.42609 8.37559 8.27225L13.8264 4.5657Z" fill="#1A1A1A"/>
</svg>
