<svg width="22" height="22" viewBox="0 0 22 22" fill="none" xmlns="http://www.w3.org/2000/svg">
<path fill-rule="evenodd" clip-rule="evenodd" d="M19.2885 3.94564C20.1699 4.19699 20.865 4.93277 21.1022 5.86621C21.5431 7.57116 21.5261 11.125 21.5261 11.125C21.5261 11.125 21.5261 14.6608 21.1024 16.3659C20.865 17.2992 20.1701 18.0351 19.2885 18.2863C17.6781 18.7352 11.2367 18.7352 11.2367 18.7352C11.2367 18.7352 4.81208 18.7352 3.18489 18.2685C2.30331 18.0172 1.60841 17.2812 1.37102 16.3479C0.947266 14.6608 0.947266 11.1071 0.947266 11.1071C0.947266 11.1071 0.947266 7.57116 1.37102 5.86621C1.60825 4.93294 2.32027 4.17904 3.18473 3.92785C4.79513 3.479 11.2365 3.479 11.2365 3.479C11.2365 3.479 17.6781 3.479 19.2885 3.94564ZM14.5421 11.1071L9.1856 14.3737V7.84047L14.5421 11.1071Z" fill="#3C3C3C"/>
</svg>
